<?xml version="1.0" encoding="utf-8"?>
<!-- Generator: Adobe Illustrator 21.0.0, SVG Export Plug-In . SVG Version: 6.00 Build 0)  -->
<svg version="1.1" id="Capa_1" xmlns="http://www.w3.org/2000/svg" xmlns:xlink="http://www.w3.org/1999/xlink" x="0px" y="0px"
	 viewBox="0 0 512 512" style="enable-background:new 0 0 512 512;" xml:space="preserve">
<style type="text/css">
	.st0{fill:url(#SVGID_1_);}
	.st1{fill:url(#SVGID_2_);}
	.st2{fill:url(#SVGID_3_);}
	.st3{fill:url(#SVGID_4_);}
</style>
<g>
	<g>
		
			<linearGradient id="SVGID_1_" gradientUnits="userSpaceOnUse" x1="54.2447" y1="421.5053" x2="181.2447" y2="407.5053" gradientTransform="matrix(1 0 0 -1 0 514)">
			<stop  offset="0" style="stop-color:#005076"/>
			<stop  offset="1" style="stop-color:#0085C6"/>
		</linearGradient>
		<path class="st0" d="M163.9,96.7c-3.9-3.9-10.3-3.9-14.2,0s-3.9,10.3,0,14.2c3.9,3.9,10.3,3.9,14.2,0
			C167.9,107,167.9,100.6,163.9,96.7z"/>
	</g>
</g>
<g>
	<g>
		
			<linearGradient id="SVGID_2_" gradientUnits="userSpaceOnUse" x1="37.9567" y1="273.7499" x2="164.9567" y2="259.7499" gradientTransform="matrix(1 0 0 -1 0 514)">
			<stop  offset="0" style="stop-color:#005076"/>
			<stop  offset="1" style="stop-color:#0085C6"/>
		</linearGradient>
		<path class="st1" d="M509.1,397.3L417,304.2c19.2-30.3,29.3-65.2,29.3-101.3C446.3,98,360.9,12.7,256,12.7S65.7,98,65.7,202.9
			c0,36.1,10.1,71,29.3,101.3L2.9,397.3c-2.6,2.6-3.5,6.4-2.5,10c1.1,3.5,4,6.2,7.6,6.9l57.7,11.5c1.9,0.4,3.7,1.3,5.1,2.7
			c1.4,1.4,2.4,3.2,2.8,5.1l11.5,57.7c0.7,3.6,3.4,6.6,6.9,7.6c0.9,0.3,1.9,0.4,2.9,0.4c2.6,0,5.2-1,7.1-3l107.8-108.8
			c15,3.7,30.5,5.7,46.1,5.7s31-1.9,46.1-5.7l107.8,108.8c1.9,1.9,4.5,3,7.1,3c1,0,1.9-0.1,2.9-0.4c3.5-1.1,6.2-4,6.9-7.6l11.5-57.7
			c0.4-2,1.4-3.7,2.7-5.1c1.4-1.4,3.2-2.4,5.1-2.7l57.7-11.5c3.6-0.7,6.5-3.4,7.6-6.9C512.6,403.7,511.7,399.9,509.1,397.3z
			 M101.1,468.9l-7.9-39.3c-0.5-2.5-1.3-4.9-2.4-7.1l34.7-35.6c3.9-4,3.8-10.3-0.2-14.2c-4-3.9-10.3-3.8-14.2,0.2l-34.6,35.4
			c-2.2-1-4.5-1.8-6.9-2.3l-39.5-7.9l76.5-77.3c21.4,27,49.7,47.8,81.7,60L101.1,468.9z M302.3,366.8L302.3,366.8
			c-15,4.3-30.6,6.4-46.3,6.4s-31.3-2.2-46.3-6.4l0,0c0,0,0,0-0.1,0c-37.8-10.7-71-34.5-93.6-67c-19.8-28.6-30.3-62-30.3-96.9
			c0-93.9,76.4-170.2,170.2-170.2s170.2,76.4,170.2,170.2c0,34.8-10.5,68.3-30.3,96.9C373.4,332.3,340.1,356.1,302.3,366.8
			L302.3,366.8z M442.3,406.1c-2.4,0.5-4.7,1.3-6.9,2.3l-31.7-32.6c-3.9-4-10.2-4-14.2-0.2c-4,3.9-4,10.2-0.2,14.2l31.8,32.7
			c-1.1,2.3-1.9,4.6-2.4,7.1l-7.8,39.3l-87.3-88.1c32-12.2,60.3-33,81.7-60l76.5,77.3L442.3,406.1z"/>
	</g>
</g>
<g>
	<g>
		
			<linearGradient id="SVGID_3_" gradientUnits="userSpaceOnUse" x1="45.7675" y1="344.6056" x2="172.7675" y2="330.6056" gradientTransform="matrix(1 0 0 -1 0 514)">
			<stop  offset="0" style="stop-color:#005076"/>
			<stop  offset="1" style="stop-color:#0085C6"/>
		</linearGradient>
		<path class="st2" d="M355.4,166.1c-1.2-3.6-4.3-6.3-8.1-6.8l-57.2-8.3l-25.6-51.8c-1.7-3.4-5.2-5.6-9-5.6l0,0
			c-3.8,0-7.3,2.2-9,5.6L221.1,151l-57.2,8.3c-3.8,0.5-6.9,3.2-8.1,6.8c-1.2,3.6-0.2,7.6,2.5,10.3l41.4,40.3l-9.8,56.9
			c-0.6,3.8,0.9,7.6,4,9.8c3.1,2.2,7.2,2.5,10.5,0.8l51.1-26.9l51.1,26.9c1.5,0.8,3.1,1.2,4.7,1.2c2.1,0,4.1-0.6,5.9-1.9
			c3.1-2.2,4.6-6,4-9.8l-9.8-56.9l41.4-40.3C355.6,173.7,356.6,169.7,355.4,166.1z M293.8,206c-2.4,2.3-3.4,5.6-2.9,8.9l7.2,42.1
			l-37.8-19.9c-2.9-1.5-6.4-1.5-9.3,0L213.1,257l7.2-42.1c0.6-3.2-0.5-6.6-2.9-8.9l-30.6-29.8l42.3-6.1c3.3-0.5,6.1-2.5,7.5-5.5
			l18.9-38.3l18.9,38.3c1.5,3,4.3,5,7.5,5.5l42.3,6.1L293.8,206z"/>
	</g>
</g>
<g>
	<g>
		
			<linearGradient id="SVGID_4_" gradientUnits="userSpaceOnUse" x1="44.6424" y1="334.3993" x2="171.6424" y2="320.3993" gradientTransform="matrix(1 0 0 -1 0 514)">
			<stop  offset="0" style="stop-color:#005076"/>
			<stop  offset="1" style="stop-color:#0085C6"/>
		</linearGradient>
		<path class="st3" d="M256,52.7c-25.1,0-49.9,6.3-71.8,18.3c-4.9,2.7-6.6,8.7-4,13.6c2.7,4.9,8.7,6.6,13.6,4
			c19-10.4,40.5-15.9,62.2-15.9c71.8,0,130.2,58.4,130.2,130.2S327.8,333.1,256,333.1s-130.2-58.4-130.2-130.2
			c0-21.7,5.5-43.3,15.9-62.2c2.7-4.9,0.9-10.9-4-13.6c-4.9-2.7-10.9-0.9-13.6,4c-12,21.9-18.3,46.8-18.3,71.8
			c0,82.8,67.4,150.2,150.2,150.2s150.2-67.4,150.2-150.2S338.8,52.7,256,52.7z"/>
	</g>
</g>
</svg>
