<?xml version="1.0" encoding="utf-8"?>
<!-- Generator: Adobe Illustrator 21.0.0, SVG Export Plug-In . SVG Version: 6.00 Build 0)  -->
<svg version="1.1" id="Layer_1" xmlns="http://www.w3.org/2000/svg" xmlns:xlink="http://www.w3.org/1999/xlink" x="0px" y="0px"
	 viewBox="0 0 490 490" style="enable-background:new 0 0 490 490;" xml:space="preserve">
<style type="text/css">
	.st0{fill:url(#SVGID_1_);}
	.st1{fill:url(#SVGID_2_);}
	.st2{fill:url(#SVGID_3_);}
	.st3{fill:url(#SVGID_4_);}
</style>
<g>
	<g>
		
			<linearGradient id="SVGID_1_" gradientUnits="userSpaceOnUse" x1="-38" y1="205.95" x2="216" y2="205.95" gradientTransform="matrix(1 0 0 -1 0 492)">
			<stop  offset="0" style="stop-color:#005076"/>
			<stop  offset="0.9944" style="stop-color:#0085C6"/>
		</linearGradient>
		<path class="st0" d="M245.8,335.8c8.1,0,15.5-3.1,21.1-8.1l36.5,21.1c1.6,0.9,3.3,1.3,4.9,1.3c3.4,0,6.8-1.8,8.6-5
			c2.7-4.7,1.1-10.8-3.6-13.5l-36.4-21c0.4-2.1,0.7-4.3,0.7-6.5c0-14-9.2-26-21.8-30.1v-42.1c0-5.5-4.4-9.9-9.9-9.9
			s-9.9,4.4-9.9,9.9V274c-12.8,4.1-22,16-22,30c0,2.2,0.2,4.4,0.7,6.5l-36.4,21c-4.7,2.7-6.4,8.8-3.6,13.5c1.8,3.2,5.2,5,8.6,5
			c1.7,0,3.4-0.4,4.9-1.3l36.5-21.1C230.3,332.6,237.7,335.8,245.8,335.8z M245.8,292c6.6,0,11.9,5.3,11.9,11.9s-5.3,11.9-11.9,11.9
			s-11.9-5.3-11.9-11.9C233.8,297.5,239.2,292,245.8,292z"/>
		
			<linearGradient id="SVGID_2_" gradientUnits="userSpaceOnUse" x1="-38" y1="359.9" x2="216" y2="359.9" gradientTransform="matrix(1 0 0 -1 0 492)">
			<stop  offset="0" style="stop-color:#005076"/>
			<stop  offset="0.9944" style="stop-color:#0085C6"/>
		</linearGradient>
		<path class="st1" d="M331.9,235.9c5.5,0,9.9-4.4,9.9-9.9v-24.5c0-8.2-3.6-15.9-9.9-21c-18.7-15.4-38.8-26.6-48.2-31.5v-24.8
			c4.6-4.8,7.2-11.2,7.2-18V70.4c0-23.2-18.9-42.1-42.1-42.1h-7.7c-23.2,0-42.1,18.9-42.1,42.1v35.8c0,6.8,2.6,13.2,7.2,18v24.7
			c-9.4,4.9-29.4,16.1-48.2,31.5c-6.3,5.2-9.9,12.8-9.9,21v24.5c0,5.5,4.4,9.9,9.9,9.9s9.9-4.4,9.9-9.9v-24.5c0-2.2,1-4.3,2.7-5.7
			c21.4-17.6,44.5-29.2,48.9-31.4c4-1.9,6.4-5.9,6.4-10.3v-34.5c0-3.3-1.7-6.4-4.4-8.2c-1.7-1.2-2.8-3.1-2.8-5.2V70.5
			c0-12.3,10-22.3,22.3-22.3h7.7c12.3,0,22.3,10,22.3,22.3v35.7c0,2.1-1,4-2.8,5.2c-2.8,1.8-4.4,4.9-4.4,8.2v34.5
			c0,4.4,2.5,8.4,6.4,10.3c4.4,2.2,27.6,13.9,48.9,31.4c1.7,1.4,2.7,3.5,2.7,5.7V226C322,231.6,326.5,235.9,331.9,235.9z"/>
		
			<linearGradient id="SVGID_3_" gradientUnits="userSpaceOnUse" x1="-38" y1="134.2" x2="216" y2="134.2" gradientTransform="matrix(1 0 0 -1 0 492)">
			<stop  offset="0" style="stop-color:#005076"/>
			<stop  offset="0.9944" style="stop-color:#0085C6"/>
		</linearGradient>
		<path class="st2" d="M490,451.6v-24.5c0-8.2-3.6-15.9-9.9-21c-18.7-15.4-38.7-26.6-48.2-31.5v-24.8c4.6-4.8,7.2-11.2,7.2-18v-35.7
			c0-23.2-18.9-42.1-42.1-42.1h-7.7c-23.2,0-42.1,18.9-42.1,42.1v35.8c0,6.8,2.6,13.2,7.2,18v24.8c-9.4,4.9-29.4,16.1-48.2,31.5
			c-6.3,5.2-9.9,12.8-9.9,21v24.5c0,5.5,4.4,9.9,9.9,9.9s9.9-4.4,9.9-9.9v-24.5c0-2.2,1-4.3,2.7-5.7c21.4-17.6,44.5-29.2,48.9-31.4
			c3.9-1.9,6.5-6,6.5-10.3v-34.5c0-3.3-1.7-6.4-4.4-8.2c-1.7-1.2-2.8-3.1-2.8-5.2v-35.8c0-12.3,10-22.3,22.3-22.3h7.7
			c12.3,0,22.3,10,22.3,22.3v35.7c0,2.1-1,4-2.8,5.2c-2.8,1.8-4.4,4.9-4.4,8.2v34.5c0,4.4,2.5,8.4,6.4,10.3
			c4.4,2.2,27.6,13.9,48.9,31.4c1.7,1.4,2.7,3.5,2.7,5.7v24.5c0,5.5,4.4,9.9,9.9,9.9C485.6,461.5,490,457.1,490,451.6z"/>
		
			<linearGradient id="SVGID_4_" gradientUnits="userSpaceOnUse" x1="-38" y1="134.2" x2="216" y2="134.2" gradientTransform="matrix(1 0 0 -1 0 492)">
			<stop  offset="0" style="stop-color:#005076"/>
			<stop  offset="0.9944" style="stop-color:#0085C6"/>
		</linearGradient>
		<path class="st3" d="M183.7,461.5c5.5,0,9.9-4.4,9.9-9.9v-24.5c0-8.2-3.6-15.9-9.9-21c-18.7-15.4-38.7-26.6-48.2-31.5v-24.8
			c4.6-4.8,7.2-11.2,7.2-18v-35.7c0-23.2-18.9-42.1-42.1-42.1H93c-23.2,0-42.1,18.9-42.1,42.1v35.8c0,6.8,2.6,13.2,7.2,18v24.8
			c-9.4,4.9-29.4,16.1-48.2,31.5C3.6,411.4,0,419,0,427.2v24.5c0,5.5,4.4,9.9,9.9,9.9s9.9-4.4,9.9-9.9v-24.5c0-2.2,1-4.3,2.7-5.7
			C43.8,404,67,392.3,71.4,390.1c3.9-1.9,6.5-6,6.5-10.3v-34.5c0-3.3-1.7-6.4-4.4-8.2c-1.7-1.2-2.8-3.1-2.8-5.2v-35.8
			c0-12.3,10-22.3,22.3-22.3h7.7c12.3,0,22.3,10,22.3,22.3v35.7c0,2.1-1,4-2.8,5.2c-2.8,1.8-4.4,4.9-4.4,8.2v34.5
			c0,4.4,2.5,8.4,6.4,10.3c4.4,2.2,27.6,13.9,48.9,31.4c1.7,1.4,2.7,3.5,2.7,5.7v24.5C173.8,457.1,178.3,461.5,183.7,461.5z"/>
	</g>
</g>
</svg>
