<?xml version="1.0" encoding="utf-8"?>
<!-- Generator: Adobe Illustrator 21.0.0, SVG Export Plug-In . SVG Version: 6.00 Build 0)  -->
<svg version="1.1" id="Capa_1" xmlns="http://www.w3.org/2000/svg" xmlns:xlink="http://www.w3.org/1999/xlink" x="0px" y="0px"
	 viewBox="0 0 496.7 496.7" style="enable-background:new 0 0 496.7 496.7;" xml:space="preserve">
<style type="text/css">
	.st0{fill:url(#SVGID_1_);}
	.st1{fill:url(#SVGID_2_);}
	.st2{fill:url(#SVGID_3_);}
	.st3{fill:url(#SVGID_4_);}
	.st4{fill:url(#SVGID_5_);}
	.st5{fill:url(#SVGID_6_);}
	.st6{fill:url(#SVGID_7_);}
	.st7{fill:url(#SVGID_8_);}
	.st8{fill:url(#SVGID_9_);}
	.st9{fill:url(#SVGID_10_);}
	.st10{fill:url(#SVGID_11_);}
	.st11{fill:url(#SVGID_12_);}
</style>
<linearGradient id="SVGID_1_" gradientUnits="userSpaceOnUse" x1="-79" y1="312.1215" x2="252" y2="312.1215" gradientTransform="matrix(1 0 0 -1 0 498)">
	<stop  offset="0" style="stop-color:#005076"/>
	<stop  offset="1" style="stop-color:#0085C6"/>
</linearGradient>
<path class="st0" d="M334.5,371.8H162.3c-4.7,0-7.8-3.1-7.8-7.8c0-10.9-5.4-20.9-14-27.2c-49.6-35.6-79.1-93-77.5-153.5
	C64.5,85.6,141.3,5.7,238.3,0.2c107.1-5.4,195.5,79.9,195.5,185.4c0,59.7-29.5,116.4-77.6,151.3c-8.5,6.2-14,16.3-14,27.2
	C342.2,368,339.1,371.8,334.5,371.8z M169.2,356.3h158.3c2.3-13.2,9.3-24.8,19.4-31.8c45-31.8,71.4-83.8,71.4-138.1
	c0-97.7-81.5-175.3-179.2-170.7C150.6,20.4,80,94.1,78.5,183.3c-0.8,55.9,25.6,108.6,71.4,141.2
	C159.9,331.5,166.9,343.1,169.2,356.3z"/>
<linearGradient id="SVGID_2_" gradientUnits="userSpaceOnUse" x1="-79" y1="31.5" x2="252" y2="31.5" gradientTransform="matrix(1 0 0 -1 0 498)">
	<stop  offset="0" style="stop-color:#005076"/>
	<stop  offset="1" style="stop-color:#0085C6"/>
</linearGradient>
<path class="st1" d="M302.7,436.2H194.1c-4.7,0-7.8,3.1-7.8,7.8c0,29.5,24,52.8,52.8,52.8h18.6c29.5,0,52.8-24,52.8-52.8
	C310.4,439.3,307.3,436.2,302.7,436.2z M257.7,481.2h-18.6c-17.8,0-33.4-12.4-36.5-29.5h92.3C291,468.8,275.5,481.2,257.7,481.2z"/>
<g>
	
		<linearGradient id="SVGID_3_" gradientUnits="userSpaceOnUse" x1="-79" y1="93.95" x2="252" y2="93.95" gradientTransform="matrix(1 0 0 -1 0 498)">
		<stop  offset="0" style="stop-color:#005076"/>
		<stop  offset="1" style="stop-color:#0085C6"/>
	</linearGradient>
	<path class="st2" d="M334.5,356.3H162.3c-4.7,0-7.8,3.1-7.8,7.8v62.1c0,14,11.6,25.6,25.6,25.6h137.3c14,0,25.6-11.6,25.6-25.6
		v-62.1C342.2,359.4,339.1,356.3,334.5,356.3z M326.7,426.1c0,5.4-4.7,10.1-10.1,10.1H180.1c-5.4,0-10.1-4.7-10.1-10.1v-54.3h156.7
		V426.1L326.7,426.1z"/>
	
		<linearGradient id="SVGID_4_" gradientUnits="userSpaceOnUse" x1="-79" y1="94.35" x2="252" y2="94.35" gradientTransform="matrix(1 0 0 -1 0 498)">
		<stop  offset="0" style="stop-color:#005076"/>
		<stop  offset="1" style="stop-color:#0085C6"/>
	</linearGradient>
	<rect x="279.4" y="395.9" class="st3" width="15.5" height="15.5"/>
	
		<linearGradient id="SVGID_5_" gradientUnits="userSpaceOnUse" x1="-79" y1="94.35" x2="252" y2="94.35" gradientTransform="matrix(1 0 0 -1 0 498)">
		<stop  offset="0" style="stop-color:#005076"/>
		<stop  offset="1" style="stop-color:#0085C6"/>
	</linearGradient>
	<rect x="240.6" y="395.9" class="st4" width="15.5" height="15.5"/>
	
		<linearGradient id="SVGID_6_" gradientUnits="userSpaceOnUse" x1="-79" y1="94.35" x2="252" y2="94.35" gradientTransform="matrix(1 0 0 -1 0 498)">
		<stop  offset="0" style="stop-color:#005076"/>
		<stop  offset="1" style="stop-color:#0085C6"/>
	</linearGradient>
	<rect x="201.8" y="395.9" class="st5" width="15.5" height="15.5"/>
</g>
<linearGradient id="SVGID_7_" gradientUnits="userSpaceOnUse" x1="-79" y1="312.4" x2="252" y2="312.4" gradientTransform="matrix(1 0 0 -1 0 498)">
	<stop  offset="0" style="stop-color:#005076"/>
	<stop  offset="1" style="stop-color:#0085C6"/>
</linearGradient>
<path class="st6" d="M285.6,307.4c-16.3,0-30.3-14-30.3-31.8v-180c0-17.1,13.2-31.8,30.3-31.8c12.4,0,22.5,7.8,27.2,18.6
	c1.6,0,3.9-0.8,5.4-0.8c16.3,0,29.5,13.2,30.3,30.3c13.2,3.9,22.5,15.5,22.5,30.3c0,6.2-2.3,12.4-5.4,17.8c8.5,5.4,14,15.5,14,26.4
	c0,8.5-3.1,16.3-9.3,22.5c2.3,4.7,3.9,10.1,3.9,15.5c0,14.7-9.3,27.2-22.5,30.3c0,0.8,0,2.3,0,3.1c0,17.1-13.2,31.8-30.3,31.8
	c-3.1,0-5.4-0.8-8.5-1.6C308.1,299.7,297.2,307.4,285.6,307.4z M285.6,80.1c-7.8,0-14.7,7-14.7,16.3v180c0,8.5,6.2,16.3,14.7,16.3
	c7.8,0,14-7,14.7-14.7c0-3.1,2.3-5.4,4.7-7c2.3-0.8,5.4-0.8,7.8,0.8c10.9,9.3,23.3-0.8,23.3-12.4c0-2.3-0.8-4.7-1.6-7
	c-1.6-2.3-0.8-5.4,0.8-7.8c1.6-2.3,4.7-3.9,7-3.1c0.8,0,1.6,0,2.3,0.8c7.8,0,14-7,14-16.3c0-4.7-1.6-8.5-4.7-11.6
	c-1.6-1.6-2.3-3.9-2.3-6.2s1.6-4.7,3.9-5.4c4.7-3.1,7.8-8.5,7.8-14c0-7.8-5.4-14.7-13.2-15.5c-3.1-0.8-6.2-3.1-7-6.2s0.8-7,3.9-8.5
	c4.7-3.1,7.8-7.8,7.8-14c0-8.5-6.2-15.5-14-16.3c-0.8,0-0.8,0-1.6,0c-2.3,0-4.7-0.8-6.2-3.1c-1.6-1.6-2.3-4.7-1.6-7l0.8-1.6
	c0-0.8,0.8-1.6,0.8-2.3c0-8.5-6.2-16.3-14.7-16.3c-2.3,0-3.9,0.8-7,2.3c-2.3,1.6-5.4,1.6-7.8,0s-3.9-3.9-3.9-6.2
	C298.8,86.4,292.6,80.1,285.6,80.1z"/>
<g>
	
		<linearGradient id="SVGID_8_" gradientUnits="userSpaceOnUse" x1="-79" y1="312" x2="252" y2="312" gradientTransform="matrix(1 0 0 -1 0 498)">
		<stop  offset="0" style="stop-color:#005076"/>
		<stop  offset="1" style="stop-color:#0085C6"/>
	</linearGradient>
	<path class="st7" d="M211.1,307.4c-12.4,0-22.5-7.8-27.2-18.6c-1.6,0-3.9,0.8-5.4,0.8c-16.3,0-29.5-13.2-30.3-30.3
		c-13.2-3.9-22.5-15.5-22.5-30.3c0-6.2,2.3-12.4,5.4-17.8c-8.5-5.4-14-15.5-14-26.4c0-8.5,3.1-16.3,9.3-22.5
		c-2.3-4.7-3.9-10.1-3.9-15.5c0-14.7,9.3-27.2,22.5-30.3c0-0.8,0-2.3,0-3.1c0-17.1,13.2-31.8,30.3-31.8c3.1,0,5.4,0.8,8.5,1.6
		c4.7-10.9,15.5-18.6,27.2-18.6c16.3,0,30.3,14,30.3,31.8v180C241.4,293.5,228.2,307.4,211.1,307.4z M189.4,270.2
		c1.6,0,2.3,0,3.9,0.8c2.3,1.6,3.9,3.9,3.9,6.2c0.8,8.5,7,14.7,14,14.7c7.8,0,14.7-7,14.7-16.3v-180c0-8.5-6.2-16.3-14.7-16.3
		c-7.8,0-14,7-14.7,14.7c0,3.1-2.3,5.4-4.7,7c-2.3,0.8-5.4,0.8-7.8-0.8c-10.9-9.3-23.3,0.8-23.3,12.4c0,2.3,0.8,4.7,1.6,7
		c1.6,2.3,0.8,5.4-0.8,7.8c-1.6,2.3-4.7,3.9-7,3.1c-0.8,0-1.6,0-2.3-0.8c-7.8,0-14,7-14,16.3c0,4.7,1.6,8.5,4.7,11.6
		c1.6,1.6,2.3,3.9,2.3,6.2s-1.6,4.7-3.9,5.4c-4.7,3.1-7.8,8.5-7.8,14c0,7.8,5.4,14.7,13.2,15.5c3.1,0,6.2,3.1,7,6.2s-0.8,7-3.9,8.5
		c-4.7,3.1-7.8,7.8-7.8,14c0,8.5,6.2,15.5,14,16.3c0.8,0,0.8,0,1.6,0c2.3,0,4.7,0.8,6.2,3.1c1.6,1.6,2.3,4.7,1.6,7l-0.8,1.6
		c0,0.8-0.8,1.6-0.8,2.3c0,8.5,6.2,16.3,14.7,16.3c2.3,0,3.9-0.8,7-2.3C186.3,271,187.9,270.2,189.4,270.2z"/>
	
		<linearGradient id="SVGID_9_" gradientUnits="userSpaceOnUse" x1="-79" y1="336.45" x2="252" y2="336.45" gradientTransform="matrix(1 0 0 -1 0 498)">
		<stop  offset="0" style="stop-color:#005076"/>
		<stop  offset="1" style="stop-color:#0085C6"/>
	</linearGradient>
	<rect x="287.2" y="153.8" class="st8" width="15.5" height="15.5"/>
	
		<linearGradient id="SVGID_10_" gradientUnits="userSpaceOnUse" x1="-79" y1="282.85" x2="252" y2="282.85" gradientTransform="matrix(1 0 0 -1 0 498)">
		<stop  offset="0" style="stop-color:#005076"/>
		<stop  offset="1" style="stop-color:#0085C6"/>
	</linearGradient>
	<rect x="287.2" y="207.4" class="st9" width="15.5" height="15.5"/>
	
		<linearGradient id="SVGID_11_" gradientUnits="userSpaceOnUse" x1="-79" y1="336.45" x2="252" y2="336.45" gradientTransform="matrix(1 0 0 -1 0 498)">
		<stop  offset="0" style="stop-color:#005076"/>
		<stop  offset="1" style="stop-color:#0085C6"/>
	</linearGradient>
	<rect x="194.1" y="153.8" class="st10" width="15.5" height="15.5"/>
	
		<linearGradient id="SVGID_12_" gradientUnits="userSpaceOnUse" x1="-79" y1="282.85" x2="252" y2="282.85" gradientTransform="matrix(1 0 0 -1 0 498)">
		<stop  offset="0" style="stop-color:#005076"/>
		<stop  offset="1" style="stop-color:#0085C6"/>
	</linearGradient>
	<rect x="194.1" y="207.4" class="st11" width="15.5" height="15.5"/>
</g>
</svg>
