<?xml version="1.0" encoding="utf-8"?>
<!-- Generator: Adobe Illustrator 21.0.0, SVG Export Plug-In . SVG Version: 6.00 Build 0)  -->
<svg version="1.1" id="Capa_1" xmlns="http://www.w3.org/2000/svg" xmlns:xlink="http://www.w3.org/1999/xlink" x="0px" y="0px"
	 viewBox="0 0 886.1 703.3" style="enable-background:new 0 0 886.1 703.3;" xml:space="preserve">
<style type="text/css">
	.st0{fill:#AFBBD0;}
	.st1{fill:#424242;}
	.st2{fill:#005076;}
	.st3{fill:#FAFAFA;}
	.st4{fill:#F5F5F5;}
	.st5{fill:#E0E0E0;}
	.st6{fill:#BEC8DC;}
	.st7{fill:#96A5B9;}
	.st8{fill:#00273A;}
	.st9{fill:#757575;}
	.st10{fill:#616161;}
	.st11{fill:#BDBDBD;}
	.st12{fill:#FFFFFF;}
	.st13{fill:#EF5350;}
	.st14{fill:url(#SVGID_1_);}
	.st15{fill:url(#SVGID_2_);}
	.st16{fill:#111111;}
	.st17{fill:url(#SVGID_3_);}
	.st18{fill:#111312;}
	.st19{fill:#646567;}
	.st20{opacity:0.8;fill:#1D2021;enable-background:new    ;}
	.st21{fill:url(#SVGID_4_);}
	.st22{fill:url(#SVGID_5_);}
	.st23{fill:#CACACA;}
	.st24{fill:url(#SVGID_6_);}
	.st25{fill:#B0B0B0;}
</style>
<title>imgSeccionAspectos</title>
<polygon class="st0" points="358,567.7 342.2,643.5 543.9,643.5 528.2,567.7 "/>
<path class="st1" d="M886.1,474.3v-450c0-13.4-10.9-24.3-24.3-24.3H24.3C10.9,0,0,10.9,0,24.3l0,0v450H886.1z"/>
<rect x="25.3" y="25.3" class="st2" width="835.5" height="423.6"/>
<rect x="25.3" y="25.3" class="st3" width="835.5" height="15"/>
<path class="st4" d="M581.4,636.8H304.7c-7.5,0-13.5,6.1-13.5,13.5l0,0h303.7C594.9,642.8,588.9,636.8,581.4,636.8z"/>
<rect x="25.3" y="25.3" class="st5" width="46.2" height="15"/>
<path class="st6" d="M0,474.3v69.2c0,13.4,10.9,24.3,24.3,24.3l0,0h837.6c13.4,0,24.3-10.9,24.3-24.3l0,0v-69.2H0z"/>
<circle class="st7" cx="443" cy="521" r="15.8"/>
<polygon class="st7" points="358,567.7 355.5,579.6 536,605.6 528.2,567.7 "/>
<rect x="830.5" y="57.9" class="st8" width="20.8" height="20.8"/>
<rect x="830.5" y="90.9" class="st8" width="20.8" height="20.8"/>
<rect x="830.5" y="124" class="st8" width="20.8" height="20.8"/>
<rect x="830.5" y="157.1" class="st8" width="20.8" height="20.8"/>
<rect x="314.1" y="423.7" class="st8" width="257.9" height="25.3"/>
<path class="st9" d="M447.7,76v326.9c0,4.8,2.3,8.7,5.2,8.7h350c2.9,0,5.2-3.9,5.2-8.7V76H447.7z"/>
<path class="st10" d="M801.2,47.5h-466c-3.8,0-6.9,3.9-6.9,8.7l0,0V66h479.9v-9.8C808.1,51.4,805,47.5,801.2,47.5L801.2,47.5z"/>
<rect x="328.3" y="66" class="st1" width="479.8" height="31.3"/>
<rect x="693.4" y="74.2" class="st10" width="93.9" height="14.9"/>
<path class="st10" d="M772.1,97.3v314.3h27.3c4.8,0,8.8-4,8.8-9.1l0,0V97.3H772.1z"/>
<rect x="783.6" y="118.8" class="st11" width="13" height="13.1"/>
<rect x="783.6" y="148.7" class="st11" width="13" height="13.1"/>
<rect x="783.6" y="178.5" class="st11" width="13" height="13.1"/>
<rect x="783.6" y="208.4" class="st11" width="13" height="13.1"/>
<rect x="783.6" y="238.3" class="st11" width="13" height="13.1"/>
<rect x="783.6" y="268.1" class="st11" width="13" height="13"/>
<rect x="783.6" y="298" class="st11" width="13" height="13"/>
<rect x="328.3" y="97.3" class="st12" width="443.8" height="314.3"/>
<circle class="st13" cx="343.1" cy="56.7" r="3"/>
<circle class="st1" cx="353.1" cy="56.7" r="3"/>
<circle class="st1" cx="363" cy="56.7" r="3"/>
<rect x="150.2" y="646.2" class="st6" width="593.9" height="27.9"/>
<polygon class="st6" points="203.1,674.1 209.1,703.3 255.3,703.3 261.3,674.1 "/>
<polygon class="st7" points="203.1,674.1 205.2,684.6 257.4,693 261.3,674.1 "/>
<polygon class="st6" points="691.2,674.1 685.2,703.3 639,703.3 633,674.1 "/>
<polygon class="st7" points="633,674.1 635.1,684.6 687.3,693 691.2,674.1 "/>
<linearGradient id="SVGID_1_" gradientUnits="userSpaceOnUse" x1="127.0917" y1="302.5307" x2="263.2867" y2="798.9356" gradientTransform="matrix(1 0 0 -1 0 706)">
	<stop  offset="0" style="stop-color:#C4BFB7"/>
	<stop  offset="0.2025" style="stop-color:#FAF1DE"/>
	<stop  offset="0.4294" style="stop-color:#D1CBC0"/>
	<stop  offset="0.6503" style="stop-color:#FAF5EE"/>
	<stop  offset="0.8098" style="stop-color:#F1E8D8"/>
	<stop  offset="1" style="stop-color:#FAF5EE"/>
</linearGradient>
<path class="st14" d="M252.9,95.7c0-12.5-10.5-22.7-23.4-22.7H119c-13,0-23.5,10.2-23.5,22.7v272.5c0,12.5,10.5,22.7,23.4,22.7
	h110.5c12.9,0,23.4-10.2,23.4-22.7L252.9,95.7z"/>
<path class="st12" d="M251.2,367.9c0,11.5-9.6,20.9-21.4,20.9H119c-11.8,0-21.4-9.4-21.4-20.9V95.5c0-11.5,9.6-20.9,21.4-20.9h110.8
	c11.8,0,21.4,9.4,21.4,20.9V367.9z"/>
<rect x="101.2" y="113.4" class="st10" width="146.3" height="241.4"/>
<g>
	
		<linearGradient id="SVGID_2_" gradientUnits="userSpaceOnUse" x1="139.0786" y1="607.4124" x2="142.193" y2="603.0586" gradientTransform="matrix(1 -1.000000e-04 -1.000000e-04 -1 11.0874 701.8209)">
		<stop  offset="5.376340e-03" style="stop-color:#1D2021"/>
		<stop  offset="1" style="stop-color:#6E6F6F"/>
	</linearGradient>
	<path class="st15" d="M154,96.1c0,1.5-1.2,2.6-2.7,2.6s-2.7-1.2-2.7-2.6c0-1.5,1.2-2.6,2.7-2.6C152.8,93.4,154,94.6,154,96.1z"/>
	<path class="st16" d="M152.8,96.1c0,0.8-0.6,1.4-1.4,1.4c-0.8,0-1.4-0.6-1.4-1.4s0.6-1.4,1.4-1.4C152.1,94.7,152.8,95.3,152.8,96.1
		z"/>
	
		<linearGradient id="SVGID_3_" gradientUnits="userSpaceOnUse" x1="139.9236" y1="606.1381" x2="141.7066" y2="604.355" gradientTransform="matrix(1 -1.000000e-04 -1.000000e-04 -1 11.0874 701.8209)">
		<stop  offset="5.376340e-03" style="stop-color:#3D538D"/>
		<stop  offset="0.3548" style="stop-color:#0A0D15"/>
		<stop  offset="1" style="stop-color:#2A3966"/>
	</linearGradient>
	<path class="st17" d="M152.7,96.2c0,0.7-0.6,1.2-1.2,1.2c-0.7,0-1.2-0.5-1.2-1.2s0.6-1.2,1.2-1.2C152.1,95,152.7,95.5,152.7,96.2z"
		/>
</g>
<g>
	<path class="st18" d="M188.3,94.6h-22.9c-0.8,0-1.5,0.6-1.5,1.4s0.7,1.5,1.5,1.5h22.9c0.8,0,1.5-0.6,1.5-1.4
		C189.8,95.3,189.1,94.6,188.3,94.6z"/>
	<g>
		<polygon class="st19" points="164.2,95.7 164.1,95.7 164.1,95.8 164.2,95.8 		"/>
		<rect x="164.1" y="96" class="st19" width="0.2" height="0.2"/>
		<rect x="164.1" y="96.4" class="st19" width="0.2" height="0.2"/>
		<polygon class="st19" points="164.6,95.3 164.4,95.3 164.4,95.5 164.6,95.5 		"/>
		<rect x="164.2" y="95.5" class="st19" width="0.2" height="0.2"/>
		<rect x="164.4" y="95.7" class="st19" width="0.2" height="0.2"/>
		<rect x="164.2" y="95.8" class="st19" width="0.2" height="0.2"/>
		<polygon class="st19" points="164.6,96 164.4,96 164.4,96.2 164.6,96.2 		"/>
		<rect x="164.2" y="96.2" class="st19" width="0.2" height="0.2"/>
		<rect x="164.4" y="96.4" class="st19" width="0.2" height="0.2"/>
		<rect x="164.2" y="96.5" class="st19" width="0.2" height="0.2"/>
		<polygon class="st19" points="164.4,96.7 164.4,96.9 164.6,96.9 164.6,96.7 		"/>
		<rect x="164.8" y="95" class="st19" width="0.2" height="0.2"/>
		
			<rect x="164.6" y="95.2" transform="matrix(0.9993 -3.617427e-02 3.617427e-02 0.9993 -3.3394 6.0201)" class="st19" width="0.2" height="0.2"/>
		
			<rect x="164.8" y="95.3" transform="matrix(3.756237e-02 -0.9993 0.9993 3.756237e-02 63.3525 256.5362)" class="st19" width="0.2" height="0.2"/>
		<rect x="164.6" y="95.5" class="st19" width="0.2" height="0.2"/>
		<rect x="164.8" y="95.7" class="st19" width="0.2" height="0.2"/>
		<rect x="164.6" y="95.8" class="st19" width="0.2" height="0.2"/>
		<rect x="164.8" y="96" class="st19" width="0.2" height="0.2"/>
		<rect x="164.6" y="96.2" class="st19" width="0.2" height="0.2"/>
		<polygon class="st19" points="164.8,96.4 164.8,96.5 165,96.5 165,96.4 		"/>
		
			<rect x="164.6" y="96.5" transform="matrix(0.9997 -2.583543e-02 2.583543e-02 0.9997 -2.4408 4.2875)" class="st19" width="0.2" height="0.2"/>
		<rect x="164.8" y="96.7" class="st19" width="0.2" height="0.2"/>
		<rect x="164.6" y="96.9" class="st19" width="0.2" height="0.2"/>
		<rect x="164.8" y="97" class="st19" width="0.2" height="0.2"/>
		<rect x="165" y="94.8" class="st19" width="0.2" height="0.2"/>
		<rect x="165.1" y="95" class="st19" width="0.2" height="0.2"/>
		<rect x="165" y="95.2" class="st19" width="0.2" height="0.2"/>
		<rect x="165.1" y="95.3" class="st19" width="0.2" height="0.2"/>
		<rect x="165" y="95.5" class="st19" width="0.2" height="0.2"/>
		<rect x="165.1" y="95.7" class="st19" width="0.2" height="0.2"/>
		<rect x="165" y="95.8" class="st19" width="0.2" height="0.2"/>
		
			<rect x="165.1" y="96" transform="matrix(2.449014e-02 -0.9997 0.9997 2.449014e-02 65.0769 258.9298)" class="st19" width="0.2" height="0.2"/>
		<rect x="165" y="96.2" class="st19" width="0.2" height="0.2"/>
		<polygon class="st19" points="165.1,96.4 165.1,96.5 165.3,96.5 165.3,96.4 		"/>
		<rect x="165" y="96.5" class="st19" width="0.2" height="0.2"/>
		
			<rect x="165.1" y="96.7" transform="matrix(2.559825e-02 -0.9997 0.9997 2.559825e-02 64.2342 259.4997)" class="st19" width="0.2" height="0.2"/>
		<rect x="165" y="96.9" class="st19" width="0.2" height="0.2"/>
		<rect x="165.1" y="97" class="st19" width="0.2" height="0.2"/>
		<rect x="165" y="97.2" class="st19" width="0.2" height="0.2"/>
		<rect x="165.3" y="94.8" class="st19" width="0.2" height="0.2"/>
		<polygon class="st19" points="165.7,95.2 165.7,95 165.5,95 165.5,95.2 		"/>
		
			<rect x="165.3" y="95.2" transform="matrix(0.9997 -2.583543e-02 2.583543e-02 0.9997 -2.407 4.3052)" class="st19" width="0.2" height="0.2"/>
		<polygon class="st19" points="165.7,95.5 165.7,95.3 165.5,95.3 165.5,95.5 		"/>
		<rect x="165.3" y="95.5" class="st19" width="0.2" height="0.2"/>
		<rect x="165.5" y="95.7" class="st19" width="0.2" height="0.2"/>
		
			<rect x="165.3" y="95.8" transform="matrix(0.9999 -1.532595e-02 1.532595e-02 0.9999 -1.4504 2.5462)" class="st19" width="0.2" height="0.2"/>
		
			<rect x="165.5" y="96" transform="matrix(2.592121e-02 -0.9997 0.9997 2.592121e-02 65.2499 259.1001)" class="st19" width="0.2" height="0.2"/>
		<rect x="165.3" y="96.2" class="st19" width="0.2" height="0.2"/>
		<rect x="165.5" y="96.4" class="st19" width="0.2" height="0.2"/>
		<rect x="165.3" y="96.5" class="st19" width="0.2" height="0.2"/>
		<rect x="165.5" y="96.7" class="st19" width="0.2" height="0.2"/>
		<rect x="165.3" y="96.9" class="st19" width="0.2" height="0.2"/>
		<polygon class="st19" points="165.5,97 165.5,97.2 165.7,97.2 165.7,97 		"/>
		<rect x="165.3" y="97.2" class="st19" width="0.2" height="0.2"/>
		<rect x="165.7" y="94.8" class="st19" width="0.2" height="0.2"/>
		<rect x="165.8" y="95" class="st19" width="0.2" height="0.2"/>
		<rect x="165.7" y="95.2" class="st19" width="0.2" height="0.2"/>
		<rect x="165.8" y="95.3" class="st19" width="0.2" height="0.2"/>
		<rect x="165.7" y="95.5" class="st19" width="0.2" height="0.2"/>
		<rect x="165.8" y="95.7" class="st19" width="0.2" height="0.2"/>
		<rect x="165.7" y="95.8" class="st19" width="0.2" height="0.2"/>
		<rect x="165.8" y="96" class="st19" width="0.2" height="0.2"/>
		
			<rect x="165.7" y="96.1" transform="matrix(2.510439e-02 -0.9997 0.9997 2.510439e-02 65.4278 259.5266)" class="st19" width="0.2" height="0.2"/>
		<rect x="165.8" y="96.4" class="st19" width="0.2" height="0.2"/>
		<rect x="165.7" y="96.5" class="st19" width="0.2" height="0.2"/>
		<rect x="165.8" y="96.7" class="st19" width="0.2" height="0.2"/>
		<polygon class="st19" points="165.7,96.9 165.7,97 165.8,97 165.8,96.9 		"/>
		<rect x="165.8" y="97" class="st19" width="0.2" height="0.2"/>
		
			<rect x="165.7" y="97.2" transform="matrix(0.9997 -2.486453e-02 2.486453e-02 0.9997 -2.368 4.1527)" class="st19" width="0.2" height="0.2"/>
		<rect x="166" y="94.8" class="st19" width="0.2" height="0.2"/>
		<polygon class="st19" points="166.4,95.2 166.4,95 166.2,95 166.2,95.2 		"/>
		<rect x="166" y="95.2" class="st19" width="0.2" height="0.2"/>
		<rect x="166.2" y="95.3" class="st19" width="0.2" height="0.2"/>
		<rect x="166" y="95.5" class="st19" width="0.2" height="0.2"/>
		<polygon class="st19" points="166.4,95.8 166.4,95.7 166.2,95.7 166.2,95.8 		"/>
		<rect x="166" y="95.8" class="st19" width="0.2" height="0.2"/>
		<rect x="166.2" y="96" class="st19" width="0.2" height="0.2"/>
		<rect x="166" y="96.2" class="st19" width="0.2" height="0.2"/>
		<rect x="166.2" y="96.4" class="st19" width="0.2" height="0.2"/>
		<rect x="166" y="96.5" class="st19" width="0.2" height="0.2"/>
		<rect x="166.2" y="96.7" class="st19" width="0.2" height="0.2"/>
		<polygon class="st19" points="166,96.9 166,97 166.2,97 166.2,96.9 		"/>
		<rect x="166.2" y="97" class="st19" width="0.2" height="0.2"/>
		<polygon class="st19" points="166,97.2 166,97.4 166.2,97.4 166.2,97.2 		"/>
		<rect x="166.4" y="94.8" class="st19" width="0.2" height="0.2"/>
		<rect x="166.5" y="95" class="st19" width="0.2" height="0.2"/>
		<rect x="166.4" y="95.2" class="st19" width="0.2" height="0.2"/>
		
			<rect x="166.5" y="95.3" transform="matrix(2.427691e-02 -0.9997 0.9997 2.427691e-02 67.1589 259.7014)" class="st19" width="0.2" height="0.2"/>
		<rect x="166.4" y="95.5" class="st19" width="0.2" height="0.2"/>
		<rect x="166.5" y="95.7" class="st19" width="0.2" height="0.2"/>
		<polygon class="st19" points="166.5,96 166.5,95.8 166.4,95.8 166.4,96 		"/>
		<rect x="166.5" y="96" class="st19" width="0.2" height="0.2"/>
		<polygon class="st19" points="166.4,96.2 166.4,96.4 166.5,96.4 166.5,96.2 		"/>
		<polygon class="st19" points="166.5,96.4 166.5,96.5 166.7,96.5 166.7,96.4 		"/>
		<rect x="166.4" y="96.5" class="st19" width="0.2" height="0.2"/>
		<rect x="166.5" y="96.7" class="st19" width="0.2" height="0.2"/>
		<rect x="166.4" y="96.9" class="st19" width="0.2" height="0.2"/>
		<rect x="166.5" y="97" class="st19" width="0.2" height="0.2"/>
		<rect x="166.4" y="97.2" class="st19" width="0.2" height="0.2"/>
		<rect x="166.7" y="94.8" class="st19" width="0.2" height="0.2"/>
		<polygon class="st19" points="167.1,95.2 167.1,95 166.9,95 166.9,95.2 		"/>
		<polygon class="st19" points="166.9,95.3 166.9,95.2 166.7,95.2 166.7,95.3 		"/>
		<rect x="166.9" y="95.3" class="st19" width="0.2" height="0.2"/>
		
			<rect x="166.7" y="95.5" transform="matrix(2.679008e-02 -0.9996 0.9996 2.679008e-02 66.788 259.8004)" class="st19" width="0.2" height="0.2"/>
		<polygon class="st19" points="167.1,95.8 167.1,95.7 166.9,95.7 166.9,95.8 		"/>
		
			<rect x="166.7" y="95.8" transform="matrix(0.9997 -2.617453e-02 2.617453e-02 0.9997 -2.4531 4.3989)" class="st19" width="0.2" height="0.2"/>
		<rect x="166.9" y="96" class="st19" width="0.2" height="0.2"/>
		<rect x="166.7" y="96.2" class="st19" width="0.2" height="0.2"/>
		<rect x="166.9" y="96.4" class="st19" width="0.2" height="0.2"/>
		<rect x="166.7" y="96.5" class="st19" width="0.2" height="0.2"/>
		<rect x="166.9" y="96.7" class="st19" width="0.2" height="0.2"/>
		<polygon class="st19" points="166.7,96.9 166.7,97 166.9,97 166.9,96.9 		"/>
		<polygon class="st19" points="166.9,97 166.9,97.2 167.1,97.2 167.1,97 		"/>
		<rect x="166.7" y="97.2" class="st19" width="0.2" height="0.2"/>
		<rect x="167.1" y="94.8" class="st19" width="0.2" height="0.2"/>
		<polygon class="st19" points="167.4,95.2 167.4,95 167.2,95 167.2,95.2 		"/>
		<rect x="167.1" y="95.2" class="st19" width="0.2" height="0.2"/>
		<rect x="167.2" y="95.3" class="st19" width="0.2" height="0.2"/>
		<rect x="167.1" y="95.5" class="st19" width="0.2" height="0.2"/>
		<rect x="167.2" y="95.7" class="st19" width="0.2" height="0.2"/>
		<rect x="167.1" y="95.8" class="st19" width="0.2" height="0.2"/>
		<rect x="167.2" y="96" class="st19" width="0.2" height="0.2"/>
		<rect x="167.1" y="96.2" class="st19" width="0.2" height="0.2"/>
		<polygon class="st19" points="167.2,96.4 167.2,96.5 167.4,96.5 167.4,96.4 		"/>
		<rect x="167.1" y="96.5" class="st19" width="0.2" height="0.2"/>
		<rect x="167.2" y="96.7" class="st19" width="0.2" height="0.2"/>
		<rect x="167.1" y="96.9" class="st19" width="0.2" height="0.2"/>
		<rect x="167.2" y="97" class="st19" width="0.2" height="0.2"/>
		<rect x="167.1" y="97.2" class="st19" width="0.2" height="0.2"/>
		<rect x="167.4" y="94.8" class="st19" width="0.2" height="0.2"/>
		<polygon class="st19" points="167.8,95.2 167.8,95 167.6,95 167.6,95.2 		"/>
		<rect x="167.4" y="95.2" class="st19" width="0.2" height="0.2"/>
		<rect x="167.6" y="95.3" class="st19" width="0.2" height="0.2"/>
		<rect x="167.4" y="95.5" class="st19" width="0.2" height="0.2"/>
		<polygon class="st19" points="167.8,95.8 167.8,95.7 167.6,95.7 167.6,95.8 		"/>
		<rect x="167.4" y="95.8" class="st19" width="0.2" height="0.2"/>
		<rect x="167.6" y="96" class="st19" width="0.2" height="0.2"/>
		<rect x="167.4" y="96.2" class="st19" width="0.2" height="0.2"/>
		<rect x="167.6" y="96.4" class="st19" width="0.2" height="0.2"/>
		<rect x="167.4" y="96.5" class="st19" width="0.2" height="0.2"/>
		<rect x="167.6" y="96.7" class="st19" width="0.2" height="0.2"/>
		<rect x="167.4" y="96.9" class="st19" width="0.2" height="0.2"/>
		<polygon class="st19" points="167.6,97 167.6,97.2 167.8,97.2 167.8,97 		"/>
		<rect x="167.4" y="97.2" class="st19" width="0.2" height="0.2"/>
		<rect x="167.8" y="94.8" class="st19" width="0.2" height="0.2"/>
		<polygon class="st19" points="168.1,95.2 168.1,95 168,95 168,95.2 		"/>
		<rect x="167.8" y="95.2" class="st19" width="0.2" height="0.2"/>
		<rect x="168" y="95.3" class="st19" width="0.2" height="0.2"/>
		<rect x="167.8" y="95.5" class="st19" width="0.2" height="0.2"/>
		<rect x="168" y="95.7" class="st19" width="0.2" height="0.2"/>
		<polygon class="st19" points="168,96 168,95.8 167.8,95.8 167.8,96 		"/>
		<rect x="168" y="96" class="st19" width="0.2" height="0.2"/>
		<rect x="167.8" y="96.2" class="st19" width="0.2" height="0.2"/>
		<rect x="168" y="96.4" class="st19" width="0.2" height="0.2"/>
		<rect x="167.8" y="96.5" class="st19" width="0.2" height="0.2"/>
		<rect x="168" y="96.7" class="st19" width="0.2" height="0.2"/>
		<rect x="167.8" y="96.9" class="st19" width="0.2" height="0.2"/>
		<polygon class="st19" points="168,97 168,97.2 168.1,97.2 168.1,97 		"/>
		<rect x="167.8" y="97.2" class="st19" width="0.2" height="0.2"/>
		<rect x="168.1" y="94.8" class="st19" width="0.2" height="0.2"/>
		<rect x="168.3" y="95" class="st19" width="0.2" height="0.2"/>
		<polygon class="st19" points="168.3,95.3 168.3,95.2 168.1,95.2 168.1,95.3 		"/>
		<polygon class="st19" points="168.5,95.5 168.5,95.3 168.3,95.3 168.3,95.5 		"/>
		<rect x="168.1" y="95.5" class="st19" width="0.2" height="0.2"/>
		<rect x="168.3" y="95.7" class="st19" width="0.2" height="0.2"/>
		<polygon class="st19" points="168.3,96 168.3,95.8 168.1,95.8 168.1,96 		"/>
		<rect x="168.3" y="96" class="st19" width="0.2" height="0.2"/>
		<polygon class="st19" points="168.1,96.2 168.1,96.4 168.3,96.4 168.3,96.2 		"/>
		<rect x="168.3" y="96.4" class="st19" width="0.2" height="0.2"/>
		<polygon class="st19" points="168.1,96.5 168.1,96.7 168.3,96.7 168.3,96.5 		"/>
		<polygon class="st19" points="168.3,96.7 168.3,96.9 168.5,96.9 168.5,96.7 		"/>
		<polygon class="st19" points="168.1,96.9 168.1,97 168.3,97 168.3,96.9 		"/>
		<polygon class="st19" points="168.3,97 168.3,97.2 168.5,97.2 168.5,97 		"/>
		<polygon class="st19" points="168.1,97.2 168.1,97.4 168.3,97.4 168.3,97.2 		"/>
		<rect x="168.5" y="94.8" class="st19" width="0.2" height="0.2"/>
		<rect x="168.7" y="95" class="st19" width="0.2" height="0.2"/>
		
			<rect x="168.5" y="95.2" transform="matrix(0.9995 -3.245386e-02 3.245386e-02 0.9995 -3.0041 5.5221)" class="st19" width="0.2" height="0.2"/>
		<rect x="168.7" y="95.3" class="st19" width="0.2" height="0.2"/>
		
			<rect x="168.5" y="95.5" transform="matrix(3.165829e-02 -0.9995 0.9995 3.165829e-02 67.7462 261.0487)" class="st19" width="0.2" height="0.2"/>
		<polygon class="st19" points="168.8,95.8 168.8,95.7 168.7,95.7 168.7,95.8 		"/>
		
			<rect x="168.5" y="95.8" transform="matrix(0.9995 -3.163788e-02 3.163788e-02 0.9995 -2.9497 5.3821)" class="st19" width="0.2" height="0.2"/>
		<rect x="168.7" y="96" class="st19" width="0.2" height="0.2"/>
		<rect x="168.5" y="96.2" class="st19" width="0.2" height="0.2"/>
		<rect x="168.7" y="96.4" class="st19" width="0.2" height="0.2"/>
		<polygon class="st19" points="168.5,96.5 168.5,96.7 168.7,96.7 168.7,96.5 		"/>
		<rect x="168.7" y="96.7" class="st19" width="0.2" height="0.2"/>
		<rect x="168.5" y="96.9" class="st19" width="0.2" height="0.2"/>
		<rect x="168.7" y="97" class="st19" width="0.2" height="0.2"/>
		<polygon class="st19" points="168.5,97.2 168.5,97.4 168.7,97.4 168.7,97.2 		"/>
		<rect x="168.8" y="94.8" class="st19" width="0.2" height="0.2"/>
		<rect x="169" y="95" class="st19" width="0.2" height="0.2"/>
		<rect x="168.8" y="95.2" class="st19" width="0.2" height="0.2"/>
		<rect x="169" y="95.3" class="st19" width="0.2" height="0.2"/>
		<rect x="168.8" y="95.5" class="st19" width="0.2" height="0.2"/>
		<rect x="169" y="95.7" class="st19" width="0.2" height="0.2"/>
		<polygon class="st19" points="169,96 169,95.8 168.8,95.8 168.8,96 		"/>
		<rect x="169" y="96" class="st19" width="0.2" height="0.2"/>
		<rect x="168.8" y="96.2" class="st19" width="0.2" height="0.2"/>
		<rect x="169" y="96.4" class="st19" width="0.2" height="0.2"/>
		<rect x="168.8" y="96.5" class="st19" width="0.2" height="0.2"/>
		<polygon class="st19" points="169,96.7 169,96.9 169.2,96.9 169.2,96.7 		"/>
		<rect x="168.8" y="96.9" class="st19" width="0.2" height="0.2"/>
		<rect x="169" y="97" class="st19" width="0.2" height="0.2"/>
		<polygon class="st19" points="168.8,97.2 168.8,97.4 169,97.4 169,97.2 		"/>
		<rect x="169.2" y="94.8" class="st19" width="0.2" height="0.2"/>
		<rect x="169.4" y="95" class="st19" width="0.2" height="0.2"/>
		<rect x="169.2" y="95.2" class="st19" width="0.2" height="0.2"/>
		
			<rect x="169.4" y="95.3" transform="matrix(2.489863e-02 -0.9997 0.9997 2.489863e-02 69.892 262.3948)" class="st19" width="0.2" height="0.2"/>
		<rect x="169.2" y="95.5" class="st19" width="0.2" height="0.2"/>
		<polygon class="st19" points="169.5,95.8 169.5,95.7 169.4,95.7 169.4,95.8 		"/>
		<rect x="169.2" y="95.8" class="st19" width="0.2" height="0.2"/>
		<rect x="169.4" y="96" class="st19" width="0.2" height="0.2"/>
		<rect x="169.2" y="96.2" class="st19" width="0.2" height="0.2"/>
		<rect x="169.4" y="96.4" class="st19" width="0.2" height="0.2"/>
		<rect x="169.2" y="96.5" class="st19" width="0.2" height="0.2"/>
		<rect x="169.4" y="96.7" class="st19" width="0.2" height="0.2"/>
		<rect x="169.2" y="96.9" class="st19" width="0.2" height="0.2"/>
		<polygon class="st19" points="169.4,97 169.4,97.2 169.5,97.2 169.6,97 		"/>
		<rect x="169.2" y="97.2" class="st19" width="0.2" height="0.2"/>
		<rect x="169.5" y="94.8" class="st19" width="0.2" height="0.2"/>
		<polygon class="st19" points="169.9,95.2 169.9,95 169.7,95 169.7,95.2 		"/>
		<rect x="169.6" y="95.2" class="st19" width="0.2" height="0.2"/>
		<rect x="169.7" y="95.3" class="st19" width="0.2" height="0.2"/>
		<rect x="169.5" y="95.5" class="st19" width="0.2" height="0.2"/>
		<polygon class="st19" points="169.9,95.8 169.9,95.7 169.7,95.7 169.7,95.8 		"/>
		<polygon class="st19" points="169.7,96 169.7,95.8 169.5,95.8 169.6,96 		"/>
		<rect x="169.7" y="96" class="st19" width="0.2" height="0.2"/>
		
			<rect x="169.6" y="96.1" transform="matrix(2.574725e-02 -0.9997 0.9997 2.574725e-02 69.1283 263.344)" class="st19" width="0.2" height="0.2"/>
		<rect x="169.7" y="96.4" class="st19" width="0.2" height="0.2"/>
		
			<rect x="169.6" y="96.5" transform="matrix(0.9997 -2.574725e-02 2.574725e-02 0.9997 -2.431 4.4015)" class="st19" width="0.2" height="0.2"/>
		<polygon class="st19" points="169.7,96.7 169.7,96.9 169.9,96.9 169.9,96.7 		"/>
		<polygon class="st19" points="169.6,96.9 169.6,97 169.7,97 169.7,96.9 		"/>
		<polygon class="st19" points="169.7,97 169.7,97.2 169.9,97.2 169.9,97 		"/>
		<polygon class="st19" points="169.5,97.2 169.6,97.4 169.7,97.4 169.7,97.2 		"/>
		<rect x="169.9" y="94.8" class="st19" width="0.2" height="0.2"/>
		<rect x="170.1" y="95" class="st19" width="0.2" height="0.2"/>
		<rect x="169.9" y="95.2" class="st19" width="0.2" height="0.2"/>
		<rect x="170.1" y="95.3" class="st19" width="0.2" height="0.2"/>
		<rect x="169.9" y="95.5" class="st19" width="0.2" height="0.2"/>
		<rect x="170.1" y="95.7" class="st19" width="0.2" height="0.2"/>
		<rect x="169.9" y="95.8" class="st19" width="0.2" height="0.2"/>
		<rect x="170.1" y="96" class="st19" width="0.2" height="0.2"/>
		<rect x="169.9" y="96.2" class="st19" width="0.2" height="0.2"/>
		<rect x="170.1" y="96.4" class="st19" width="0.2" height="0.2"/>
		
			<rect x="169.9" y="96.5" transform="matrix(0.9997 -2.551460e-02 2.551460e-02 0.9997 -2.4094 4.369)" class="st19" width="0.2" height="0.2"/>
		<rect x="170.1" y="96.7" class="st19" width="0.2" height="0.2"/>
		<rect x="169.9" y="96.9" class="st19" width="0.2" height="0.2"/>
		<rect x="170.1" y="97" class="st19" width="0.2" height="0.2"/>
		<rect x="169.9" y="97.2" class="st19" width="0.2" height="0.2"/>
		<rect x="170.3" y="94.8" class="st19" width="0.2" height="0.2"/>
		<rect x="170.4" y="95" class="st19" width="0.2" height="0.2"/>
		<rect x="170.3" y="95.2" class="st19" width="0.2" height="0.2"/>
		<rect x="170.4" y="95.3" class="st19" width="0.2" height="0.2"/>
		<rect x="170.3" y="95.5" class="st19" width="0.2" height="0.2"/>
		<rect x="170.4" y="95.7" class="st19" width="0.2" height="0.2"/>
		<polygon class="st19" points="170.4,96 170.4,95.8 170.3,95.8 170.3,96 		"/>
		<rect x="170.4" y="96" class="st19" width="0.2" height="0.2"/>
		
			<rect x="170.3" y="96.1" transform="matrix(2.510439e-02 -0.9997 0.9997 2.510439e-02 69.9137 264.1147)" class="st19" width="0.2" height="0.2"/>
		<rect x="170.4" y="96.4" class="st19" width="0.2" height="0.2"/>
		
			<rect x="170.3" y="96.5" transform="matrix(0.9997 -2.510439e-02 2.510439e-02 0.9997 -2.3714 4.3083)" class="st19" width="0.2" height="0.2"/>
		<polygon class="st19" points="170.4,96.7 170.4,96.9 170.6,96.9 170.6,96.7 		"/>
		<rect x="170.3" y="96.9" class="st19" width="0.2" height="0.2"/>
		<polygon class="st19" points="170.4,97 170.4,97.2 170.6,97.2 170.6,97 		"/>
		
			<rect x="170.3" y="97.2" transform="matrix(0.9997 -2.456721e-02 2.456721e-02 0.9997 -2.3389 4.2156)" class="st19" width="0.2" height="0.2"/>
		<polygon class="st19" points="170.8,95 170.8,94.8 170.6,94.8 170.6,95 		"/>
		<rect x="170.8" y="95" class="st19" width="0.2" height="0.2"/>
		<rect x="170.6" y="95.2" class="st19" width="0.2" height="0.2"/>
		<rect x="170.8" y="95.3" class="st19" width="0.2" height="0.2"/>
		<rect x="170.6" y="95.5" class="st19" width="0.2" height="0.2"/>
		<rect x="170.8" y="95.7" class="st19" width="0.2" height="0.2"/>
		<rect x="170.6" y="95.8" class="st19" width="0.2" height="0.2"/>
		<rect x="170.8" y="96" class="st19" width="0.2" height="0.2"/>
		<rect x="170.6" y="96.2" class="st19" width="0.2" height="0.2"/>
		<rect x="170.8" y="96.4" class="st19" width="0.2" height="0.2"/>
		<rect x="170.6" y="96.5" class="st19" width="0.2" height="0.2"/>
		<rect x="170.8" y="96.7" class="st19" width="0.2" height="0.2"/>
		<rect x="170.6" y="96.9" class="st19" width="0.2" height="0.2"/>
		<polygon class="st19" points="170.8,97 170.8,97.2 171,97.2 171,97 		"/>
		<rect x="170.6" y="97.2" class="st19" width="0.2" height="0.2"/>
		<rect x="171" y="94.8" class="st19" width="0.2" height="0.2"/>
		<rect x="171.1" y="95" class="st19" width="0.2" height="0.2"/>
		<rect x="171" y="95.2" class="st19" width="0.2" height="0.2"/>
		<rect x="171.1" y="95.3" class="st19" width="0.2" height="0.2"/>
		<rect x="171" y="95.5" class="st19" width="0.2" height="0.2"/>
		<rect x="171.1" y="95.7" class="st19" width="0.2" height="0.2"/>
		<rect x="171" y="95.8" class="st19" width="0.2" height="0.2"/>
		<rect x="171.1" y="96" class="st19" width="0.2" height="0.2"/>
		<rect x="171" y="96.2" class="st19" width="0.2" height="0.2"/>
		<rect x="171.1" y="96.4" class="st19" width="0.2" height="0.2"/>
		<polygon class="st19" points="171,96.5 171,96.7 171.1,96.7 171.1,96.5 		"/>
		<polygon class="st19" points="171.1,96.7 171.1,96.9 171.3,96.9 171.3,96.7 		"/>
		<rect x="171" y="96.9" class="st19" width="0.2" height="0.2"/>
		<polygon class="st19" points="171.1,97 171.1,97.2 171.3,97.2 171.3,97 		"/>
		<polygon class="st19" points="171,97.2 171,97.4 171.1,97.4 171.1,97.2 		"/>
		<rect x="171.3" y="94.8" class="st19" width="0.2" height="0.2"/>
		<rect x="171.5" y="95" class="st19" width="0.2" height="0.2"/>
		<rect x="171.3" y="95.2" class="st19" width="0.2" height="0.2"/>
		<rect x="171.5" y="95.3" class="st19" width="0.2" height="0.2"/>
		<rect x="171.3" y="95.5" class="st19" width="0.2" height="0.2"/>
		<rect x="171.5" y="95.7" class="st19" width="0.2" height="0.2"/>
		<rect x="171.3" y="95.8" class="st19" width="0.2" height="0.2"/>
		<rect x="171.5" y="96" class="st19" width="0.2" height="0.2"/>
		
			<rect x="171.3" y="96.2" transform="matrix(2.510439e-02 -0.9997 0.9997 2.510439e-02 70.8854 265.2444)" class="st19" width="0.2" height="0.2"/>
		<rect x="171.5" y="96.4" class="st19" width="0.2" height="0.2"/>
		
			<rect x="171.3" y="96.5" transform="matrix(0.9997 -2.551460e-02 2.551460e-02 0.9997 -2.409 4.4048)" class="st19" width="0.2" height="0.2"/>
		<rect x="171.5" y="96.7" class="st19" width="0.2" height="0.2"/>
		
			<rect x="171.4" y="96.9" transform="matrix(2.541493e-02 -0.9997 0.9997 2.541493e-02 70.1631 265.8956)" class="st19" width="0.2" height="0.2"/>
		<rect x="171.5" y="97" class="st19" width="0.2" height="0.2"/>
		
			<rect x="171.3" y="97.2" transform="matrix(0.9997 -2.456721e-02 2.456721e-02 0.9997 -2.3387 4.2402)" class="st19" width="0.2" height="0.2"/>
		<rect x="171.7" y="94.8" class="st19" width="0.2" height="0.2"/>
		<rect x="171.8" y="95" class="st19" width="0.2" height="0.2"/>
		<rect x="171.7" y="95.2" class="st19" width="0.2" height="0.2"/>
		<rect x="171.8" y="95.3" class="st19" width="0.2" height="0.2"/>
		<rect x="171.7" y="95.5" class="st19" width="0.2" height="0.2"/>
		<rect x="171.8" y="95.7" class="st19" width="0.2" height="0.2"/>
		<rect x="171.7" y="95.8" class="st19" width="0.2" height="0.2"/>
		<rect x="171.8" y="96" class="st19" width="0.2" height="0.2"/>
		
			<rect x="171.7" y="96.1" transform="matrix(2.551460e-02 -0.9997 0.9997 2.551460e-02 71.2123 265.5101)" class="st19" width="0.2" height="0.2"/>
		<rect x="171.8" y="96.4" class="st19" width="0.2" height="0.2"/>
		
			<rect x="171.7" y="96.5" transform="matrix(0.9997 -2.551460e-02 2.551460e-02 0.9997 -2.4088 4.415)" class="st19" width="0.2" height="0.2"/>
		<rect x="171.8" y="96.7" class="st19" width="0.2" height="0.2"/>
		
			<rect x="171.7" y="96.8" transform="matrix(2.541493e-02 -0.9997 0.9997 2.541493e-02 70.552 266.2032)" class="st19" width="0.2" height="0.2"/>
		<polygon class="st19" points="171.8,97 171.8,97.2 172,97.2 172,97 		"/>
		
			<rect x="171.7" y="97.2" transform="matrix(0.9997 -2.583543e-02 2.583543e-02 0.9997 -2.4565 4.4712)" class="st19" width="0.2" height="0.2"/>
		<polygon class="st19" points="172.2,95 172.2,94.8 172,94.8 172,95 		"/>
		<rect x="172.2" y="95" class="st19" width="0.2" height="0.2"/>
		<rect x="172" y="95.2" class="st19" width="0.2" height="0.2"/>
		<rect x="172.2" y="95.3" class="st19" width="0.2" height="0.2"/>
		<rect x="172" y="95.5" class="st19" width="0.2" height="0.2"/>
		<rect x="172.2" y="95.7" class="st19" width="0.2" height="0.2"/>
		<polygon class="st19" points="172.2,96 172.2,95.8 172,95.8 172,96 		"/>
		<rect x="172.2" y="96" class="st19" width="0.2" height="0.2"/>
		<rect x="172" y="96.2" class="st19" width="0.2" height="0.2"/>
		<rect x="172.2" y="96.4" class="st19" width="0.2" height="0.2"/>
		<rect x="172" y="96.5" class="st19" width="0.2" height="0.2"/>
		<rect x="172.2" y="96.7" class="st19" width="0.2" height="0.2"/>
		<rect x="172" y="96.9" class="st19" width="0.2" height="0.2"/>
		<rect x="172.2" y="97" class="st19" width="0.2" height="0.2"/>
		<polygon class="st19" points="172,97.2 172,97.4 172.2,97.4 172.2,97.2 		"/>
		<polygon class="st19" points="172.6,95 172.6,94.8 172.4,94.8 172.4,95 		"/>
		<rect x="172.6" y="95" class="st19" width="0.2" height="0.2"/>
		<rect x="172.4" y="95.2" class="st19" width="0.2" height="0.2"/>
		<rect x="172.6" y="95.3" class="st19" width="0.2" height="0.2"/>
		<rect x="172.4" y="95.5" class="st19" width="0.2" height="0.2"/>
		<rect x="172.6" y="95.7" class="st19" width="0.2" height="0.2"/>
		<rect x="172.4" y="95.8" class="st19" width="0.2" height="0.2"/>
		<rect x="172.6" y="96" class="st19" width="0.2" height="0.2"/>
		<rect x="172.4" y="96.2" class="st19" width="0.2" height="0.2"/>
		<rect x="172.6" y="96.4" class="st19" width="0.2" height="0.2"/>
		
			<rect x="172.4" y="96.5" transform="matrix(0.9997 -2.501228e-02 2.501228e-02 0.9997 -2.3622 4.3449)" class="st19" width="0.2" height="0.2"/>
		<rect x="172.6" y="96.7" class="st19" width="0.2" height="0.2"/>
		<rect x="172.4" y="96.9" class="st19" width="0.2" height="0.2"/>
		<rect x="172.6" y="97" class="st19" width="0.2" height="0.2"/>
		<polygon class="st19" points="172.4,97.2 172.4,97.4 172.6,97.4 172.6,97.2 		"/>
		
			<rect x="172.7" y="94.8" transform="matrix(2.518538e-02 -0.9997 0.9997 2.518538e-02 73.5915 265.2938)" class="st19" width="0.2" height="0.2"/>
		<rect x="172.9" y="95" class="st19" width="0.2" height="0.2"/>
		
			<rect x="172.7" y="95.2" transform="matrix(0.9996 -2.688786e-02 2.688786e-02 0.9996 -2.4999 4.6805)" class="st19" width="0.2" height="0.2"/>
		<rect x="172.9" y="95.3" class="st19" width="0.2" height="0.2"/>
		
			<rect x="172.7" y="95.5" transform="matrix(2.618197e-02 -0.9997 0.9997 2.618197e-02 72.7523 265.8753)" class="st19" width="0.2" height="0.2"/>
		<rect x="172.9" y="95.7" class="st19" width="0.2" height="0.2"/>
		
			<rect x="172.7" y="95.8" transform="matrix(0.9997 -2.551460e-02 2.551460e-02 0.9997 -2.3907 4.4402)" class="st19" width="0.2" height="0.2"/>
		<rect x="172.9" y="96" class="st19" width="0.2" height="0.2"/>
		<rect x="172.7" y="96.2" class="st19" width="0.2" height="0.2"/>
		<rect x="172.9" y="96.4" class="st19" width="0.2" height="0.2"/>
		<rect x="172.7" y="96.5" class="st19" width="0.2" height="0.2"/>
		<rect x="172.9" y="96.7" class="st19" width="0.2" height="0.2"/>
		<rect x="172.7" y="96.9" class="st19" width="0.2" height="0.2"/>
		<polygon class="st19" points="172.9,97 172.9,97.2 173.1,97.2 173.1,97 		"/>
		<rect x="172.7" y="97.2" class="st19" width="0.2" height="0.2"/>
		
			<rect x="173.1" y="94.8" transform="matrix(2.495588e-02 -0.9997 0.9997 2.495588e-02 74.0213 265.6246)" class="st19" width="0.2" height="0.2"/>
		<polygon class="st19" points="173.4,95.2 173.4,95 173.3,95 173.3,95.2 		"/>
		
			<rect x="173.1" y="95.2" transform="matrix(0.9997 -2.593034e-02 2.593034e-02 0.9997 -2.413 4.5234)" class="st19" width="0.2" height="0.2"/>
		<rect x="173.3" y="95.3" class="st19" width="0.2" height="0.2"/>
		
			<rect x="173.1" y="95.5" transform="matrix(2.529423e-02 -0.9997 0.9997 2.529423e-02 73.294 266.2734)" class="st19" width="0.2" height="0.2"/>
		<polygon class="st19" points="173.4,95.8 173.4,95.7 173.3,95.7 173.3,95.8 		"/>
		
			<rect x="173.1" y="95.8" transform="matrix(0.9997 -2.527791e-02 2.527791e-02 0.9997 -2.3688 4.4088)" class="st19" width="0.2" height="0.2"/>
		<rect x="173.3" y="96" class="st19" width="0.2" height="0.2"/>
		<rect x="173.1" y="96.2" class="st19" width="0.2" height="0.2"/>
		<rect x="173.3" y="96.4" class="st19" width="0.2" height="0.2"/>
		<rect x="173.1" y="96.5" class="st19" width="0.2" height="0.2"/>
		<rect x="173.3" y="96.7" class="st19" width="0.2" height="0.2"/>
		<rect x="173.1" y="96.9" class="st19" width="0.2" height="0.2"/>
		<polygon class="st19" points="173.3,97 173.3,97.2 173.4,97.2 173.4,97 		"/>
		<rect x="173.1" y="97.2" class="st19" width="0.2" height="0.2"/>
		
			<rect x="173.4" y="94.8" transform="matrix(2.583543e-02 -0.9997 0.9997 2.583543e-02 74.169 265.9329)" class="st19" width="0.2" height="0.2"/>
		<polygon class="st19" points="173.8,95.2 173.8,95 173.6,95 173.6,95.2 		"/>
		
			<rect x="173.4" y="95.2" transform="matrix(0.9996 -2.688786e-02 2.688786e-02 0.9996 -2.4996 4.6994)" class="st19" width="0.2" height="0.2"/>
		<rect x="173.6" y="95.3" class="st19" width="0.2" height="0.2"/>
		
			<rect x="173.4" y="95.5" transform="matrix(2.688786e-02 -0.9996 0.9996 2.688786e-02 73.2936 266.5153)" class="st19" width="0.2" height="0.2"/>
		<polygon class="st19" points="173.8,95.8 173.8,95.7 173.6,95.7 173.6,95.8 		"/>
		
			<rect x="173.4" y="95.8" transform="matrix(0.9997 -2.627006e-02 2.627006e-02 0.9997 -2.4595 4.5911)" class="st19" width="0.2" height="0.2"/>
		<rect x="173.6" y="96" class="st19" width="0.2" height="0.2"/>
		<rect x="173.4" y="96.2" class="st19" width="0.2" height="0.2"/>
		
			<rect x="173.7" y="96.3" transform="matrix(2.559825e-02 -0.9997 0.9997 2.559825e-02 72.902 267.675)" class="st19" width="0.2" height="0.2"/>
		<rect x="173.4" y="96.5" class="st19" width="0.2" height="0.2"/>
		<rect x="173.6" y="96.7" class="st19" width="0.2" height="0.2"/>
		<rect x="173.4" y="96.9" class="st19" width="0.2" height="0.2"/>
		
			<rect x="173.6" y="97" transform="matrix(2.551460e-02 -0.9997 0.9997 2.551460e-02 72.1409 268.2638)" class="st19" width="0.2" height="0.2"/>
		<rect x="173.4" y="97.2" class="st19" width="0.2" height="0.2"/>
		
			<rect x="173.8" y="94.8" transform="matrix(2.583543e-02 -0.9997 0.9997 2.583543e-02 74.5587 266.2458)" class="st19" width="0.2" height="0.2"/>
		<rect x="174" y="95" class="st19" width="0.2" height="0.2"/>
		
			<rect x="173.8" y="95.2" transform="matrix(0.9997 -2.583543e-02 2.583543e-02 0.9997 -2.4041 4.5248)" class="st19" width="0.2" height="0.2"/>
		<rect x="174" y="95.3" class="st19" width="0.2" height="0.2"/>
		<polygon class="st19" points="174,95.7 174,95.5 173.8,95.5 173.8,95.7 		"/>
		<rect x="174" y="95.7" class="st19" width="0.2" height="0.2"/>
		
			<rect x="173.8" y="95.8" transform="matrix(0.9997 -2.518538e-02 2.518538e-02 0.9997 -2.3601 4.4102)" class="st19" width="0.2" height="0.2"/>
		<rect x="174" y="96" class="st19" width="0.2" height="0.2"/>
		<rect x="173.8" y="96.2" class="st19" width="0.2" height="0.2"/>
		
			<rect x="174" y="96.3" transform="matrix(2.559825e-02 -0.9997 0.9997 2.559825e-02 73.294 267.9869)" class="st19" width="0.2" height="0.2"/>
		<rect x="173.8" y="96.5" class="st19" width="0.2" height="0.2"/>
		<rect x="174" y="96.7" class="st19" width="0.2" height="0.2"/>
		<rect x="173.8" y="96.9" class="st19" width="0.2" height="0.2"/>
		
			<rect x="173.9" y="97" transform="matrix(2.488038e-02 -0.9997 0.9997 2.488038e-02 72.6396 268.6414)" class="st19" width="0.2" height="0.2"/>
		<rect x="173.8" y="97.2" class="st19" width="0.2" height="0.2"/>
		<polygon class="st19" points="174.3,95 174.3,94.8 174.1,94.8 174.1,95 		"/>
		<rect x="174.3" y="95" class="st19" width="0.2" height="0.2"/>
		<polygon class="st19" points="174.3,95.3 174.3,95.2 174.1,95.2 174.1,95.3 		"/>
		<rect x="174.3" y="95.3" class="st19" width="0.2" height="0.2"/>
		<polygon class="st19" points="174.3,95.7 174.3,95.5 174.1,95.5 174.1,95.7 		"/>
		<rect x="174.3" y="95.7" class="st19" width="0.2" height="0.2"/>
		<polygon class="st19" points="174.3,96 174.3,95.8 174.1,95.8 174.1,96 		"/>
		<rect x="174.3" y="96" class="st19" width="0.2" height="0.2"/>
		<polygon class="st19" points="174.1,96.2 174.1,96.4 174.3,96.4 174.3,96.2 		"/>
		<rect x="174.3" y="96.4" class="st19" width="0.2" height="0.2"/>
		<polygon class="st19" points="174.1,96.5 174.1,96.7 174.3,96.7 174.3,96.5 		"/>
		<rect x="174.3" y="96.7" class="st19" width="0.2" height="0.2"/>
		<polygon class="st19" points="174.1,96.9 174.1,97 174.3,97 174.3,96.9 		"/>
		<polygon class="st19" points="174.3,97 174.3,97.2 174.5,97.2 174.5,97 		"/>
		<polygon class="st19" points="174.1,97.2 174.1,97.4 174.3,97.4 174.3,97.2 		"/>
		<polygon class="st19" points="174.7,95 174.7,94.8 174.5,94.8 174.5,95 		"/>
		<rect x="174.7" y="95" class="st19" width="0.2" height="0.2"/>
		<rect x="174.5" y="95.2" class="st19" width="0.2" height="0.2"/>
		<rect x="174.7" y="95.3" class="st19" width="0.2" height="0.2"/>
		<rect x="174.5" y="95.5" class="st19" width="0.2" height="0.2"/>
		<rect x="174.7" y="95.7" class="st19" width="0.2" height="0.2"/>
		<rect x="174.5" y="95.8" class="st19" width="0.2" height="0.2"/>
		<rect x="174.7" y="96" class="st19" width="0.2" height="0.2"/>
		<rect x="174.5" y="96.2" class="st19" width="0.2" height="0.2"/>
		<rect x="174.7" y="96.4" class="st19" width="0.2" height="0.2"/>
		<rect x="174.5" y="96.5" class="st19" width="0.2" height="0.2"/>
		<rect x="174.7" y="96.7" class="st19" width="0.2" height="0.2"/>
		<rect x="174.5" y="96.9" class="st19" width="0.2" height="0.2"/>
		<polygon class="st19" points="174.7,97 174.7,97.2 174.9,97.2 174.9,97 		"/>
		<polygon class="st19" points="174.5,97.2 174.5,97.4 174.7,97.4 174.7,97.2 		"/>
		
			<rect x="174.9" y="94.7" transform="matrix(2.593061e-02 -0.9997 0.9997 2.593061e-02 75.6187 267.2615)" class="st19" width="0.2" height="0.2"/>
		<rect x="175" y="95" class="st19" width="0.2" height="0.2"/>
		
			<rect x="174.9" y="95.2" transform="matrix(0.9996 -2.698691e-02 2.698691e-02 0.9996 -2.508 4.7573)" class="st19" width="0.2" height="0.2"/>
		<rect x="175" y="95.3" class="st19" width="0.2" height="0.2"/>
		
			<rect x="174.9" y="95.4" transform="matrix(2.698691e-02 -0.9996 0.9996 2.698691e-02 74.7391 267.8436)" class="st19" width="0.2" height="0.2"/>
		<rect x="175" y="95.7" class="st19" width="0.2" height="0.2"/>
		<rect x="174.9" y="95.8" class="st19" width="0.2" height="0.2"/>
		
			<rect x="175" y="96" transform="matrix(0.9997 -2.527817e-02 2.527817e-02 0.9997 -2.3733 4.457)" class="st19" width="0.2" height="0.2"/>
		<rect x="174.9" y="96.2" class="st19" width="0.2" height="0.2"/>
		
			<rect x="175.1" y="96.4" transform="matrix(2.497204e-02 -0.9997 0.9997 2.497204e-02 74.3669 269.1682)" class="st19" width="0.2" height="0.2"/>
		<rect x="174.9" y="96.5" class="st19" width="0.2" height="0.2"/>
		<polygon class="st19" points="175,96.7 175,96.9 175.2,96.9 175.2,96.7 		"/>
		<rect x="174.9" y="96.9" class="st19" width="0.2" height="0.2"/>
		
			<rect x="175" y="97" transform="matrix(2.529448e-02 -0.9997 0.9997 2.529448e-02 73.5421 269.7155)" class="st19" width="0.2" height="0.2"/>
		<rect x="174.9" y="97.2" class="st19" width="0.2" height="0.2"/>
		
			<rect x="175.2" y="94.8" transform="matrix(2.486453e-02 -0.9997 0.9997 2.486453e-02 76.0841 267.772)" class="st19" width="0.2" height="0.2"/>
		
			<rect x="175.4" y="95" transform="matrix(0.9997 -2.488038e-02 2.488038e-02 0.9997 -2.3118 4.396)" class="st19" width="0.2" height="0.2"/>
		
			<rect x="175.2" y="95.2" transform="matrix(0.9997 -2.583543e-02 2.583543e-02 0.9997 -2.4037 4.561)" class="st19" width="0.2" height="0.2"/>
		<rect x="175.4" y="95.3" class="st19" width="0.2" height="0.2"/>
		<polygon class="st19" points="175.4,95.7 175.4,95.5 175.2,95.5 175.2,95.7 		"/>
		<polygon class="st19" points="175.6,95.8 175.6,95.7 175.4,95.7 175.4,95.8 		"/>
		<rect x="175.2" y="95.8" class="st19" width="0.2" height="0.2"/>
		
			<rect x="175.4" y="96" transform="matrix(0.9997 -2.518538e-02 2.518538e-02 0.9997 -2.3647 4.4506)" class="st19" width="0.2" height="0.2"/>
		<rect x="175.2" y="96.2" class="st19" width="0.2" height="0.2"/>
		<polygon class="st19" points="175.4,96.4 175.4,96.5 175.6,96.5 175.6,96.4 		"/>
		<rect x="175.2" y="96.5" class="st19" width="0.2" height="0.2"/>
		<rect x="175.4" y="96.7" class="st19" width="0.2" height="0.2"/>
		<rect x="175.2" y="96.9" class="st19" width="0.2" height="0.2"/>
		
			<rect x="175.3" y="97" transform="matrix(2.583543e-02 -0.9997 0.9997 2.583543e-02 73.8454 269.9747)" class="st19" width="0.2" height="0.2"/>
		<polygon class="st19" points="175.2,97.2 175.2,97.4 175.4,97.4 175.4,97.2 		"/>
		<rect x="175.6" y="94.8" class="st19" width="0.2" height="0.2"/>
		<rect x="175.7" y="95" class="st19" width="0.2" height="0.2"/>
		<rect x="175.6" y="95.2" class="st19" width="0.2" height="0.2"/>
		<rect x="175.7" y="95.3" class="st19" width="0.2" height="0.2"/>
		<rect x="175.6" y="95.5" class="st19" width="0.2" height="0.2"/>
		<rect x="175.7" y="95.7" class="st19" width="0.2" height="0.2"/>
		<rect x="175.6" y="95.8" class="st19" width="0.2" height="0.2"/>
		<rect x="175.7" y="96" class="st19" width="0.2" height="0.2"/>
		
			<rect x="175.6" y="96.1" transform="matrix(2.551460e-02 -0.9997 0.9997 2.551460e-02 75.0135 269.3877)" class="st19" width="0.2" height="0.2"/>
		<polygon class="st19" points="175.7,96.4 175.7,96.5 175.9,96.5 175.9,96.4 		"/>
		<polygon class="st19" points="175.6,96.5 175.6,96.7 175.7,96.7 175.7,96.5 		"/>
		<polygon class="st19" points="175.7,96.7 175.7,96.9 175.9,96.9 175.9,96.7 		"/>
		<polygon class="st19" points="175.6,96.9 175.6,97 175.7,97 175.7,96.9 		"/>
		<polygon class="st19" points="175.7,97 175.7,97.2 175.9,97.2 175.9,97 		"/>
		<polygon class="st19" points="175.6,97.2 175.6,97.4 175.7,97.4 175.7,97.2 		"/>
		
			<rect x="175.9" y="94.8" transform="matrix(2.486453e-02 -0.9997 0.9997 2.486453e-02 76.7677 268.481)" class="st19" width="0.2" height="0.2"/>
		<rect x="176.1" y="95" class="st19" width="0.2" height="0.2"/>
		<polygon class="st19" points="176.1,95.3 176.1,95.2 175.9,95.2 175.9,95.3 		"/>
		<polygon class="st19" points="176.3,95.5 176.3,95.3 176.1,95.3 176.1,95.5 		"/>
		<polygon class="st19" points="176.1,95.7 176.1,95.5 175.9,95.5 175.9,95.7 		"/>
		<polygon class="st19" points="176.3,95.8 176.3,95.7 176.1,95.7 176.1,95.8 		"/>
		<polygon class="st19" points="176.1,96 176.1,95.8 175.9,95.8 175.9,96 		"/>
		<rect x="176.1" y="96" class="st19" width="0.2" height="0.2"/>
		<polygon class="st19" points="175.9,96.2 175.9,96.4 176.1,96.4 176.1,96.2 		"/>
		
			<rect x="176.1" y="96.3" transform="matrix(2.559825e-02 -0.9997 0.9997 2.559825e-02 75.3407 270.1249)" class="st19" width="0.2" height="0.2"/>
		<rect x="175.9" y="96.5" class="st19" width="0.2" height="0.2"/>
		<polygon class="st19" points="176.1,96.7 176.1,96.9 176.3,96.9 176.3,96.7 		"/>
		<rect x="175.9" y="96.9" class="st19" width="0.2" height="0.2"/>
		<polygon class="st19" points="176.1,97 176.1,97.2 176.3,97.2 176.3,97 		"/>
		<polygon class="st19" points="175.9,97.2 175.9,97.4 176.1,97.4 176.1,97.2 		"/>
		<polygon class="st19" points="176.4,95 176.4,94.8 176.3,94.8 176.3,95 		"/>
		
			<rect x="176.4" y="95" transform="matrix(0.9997 -2.478848e-02 2.478848e-02 0.9997 -2.3032 4.4044)" class="st19" width="0.2" height="0.2"/>
		<polygon class="st19" points="176.4,95.3 176.4,95.2 176.3,95.2 176.3,95.3 		"/>
		<rect x="176.4" y="95.3" class="st19" width="0.2" height="0.2"/>
		<polygon class="st19" points="176.4,95.7 176.4,95.5 176.3,95.5 176.3,95.7 		"/>
		<rect x="176.4" y="95.7" class="st19" width="0.2" height="0.2"/>
		<polygon class="st19" points="176.4,96 176.4,95.8 176.3,95.8 176.3,96 		"/>
		<polygon class="st19" points="176.4,96 176.4,96.2 176.6,96.2 176.6,96 		"/>
		<polygon class="st19" points="176.3,96.2 176.3,96.4 176.4,96.4 176.4,96.2 		"/>
		<polygon class="st19" points="176.4,96.4 176.4,96.5 176.6,96.5 176.6,96.4 		"/>
		<polygon class="st19" points="176.3,96.5 176.3,96.7 176.4,96.7 176.4,96.5 		"/>
		<polygon class="st19" points="176.4,96.7 176.4,96.9 176.6,96.9 176.6,96.7 		"/>
		<polygon class="st19" points="176.3,96.9 176.3,97 176.4,97 176.4,96.9 		"/>
		<polygon class="st19" points="176.4,97 176.4,97.2 176.6,97.2 176.6,97 		"/>
		<polygon class="st19" points="176.3,97.2 176.3,97.4 176.4,97.4 176.4,97.2 		"/>
		
			<rect x="176.6" y="94.8" transform="matrix(2.550127e-02 -0.9997 0.9997 2.550127e-02 77.3422 269.1289)" class="st19" width="0.2" height="0.2"/>
		<rect x="176.8" y="95" class="st19" width="0.2" height="0.2"/>
		
			<rect x="176.6" y="95.2" transform="matrix(0.9996 -2.649960e-02 2.649960e-02 0.9996 -2.4632 4.7158)" class="st19" width="0.2" height="0.2"/>
		<rect x="176.8" y="95.3" class="st19" width="0.2" height="0.2"/>
		<polygon class="st19" points="176.8,95.7 176.8,95.5 176.6,95.5 176.6,95.7 		"/>
		
			<rect x="176.8" y="95.6" transform="matrix(2.456721e-02 -0.9997 0.9997 2.456721e-02 76.8773 270.2576)" class="st19" width="0.2" height="0.2"/>
		
			<rect x="176.6" y="95.8" transform="matrix(0.9997 -2.583030e-02 2.583030e-02 0.9997 -2.4183 4.5963)" class="st19" width="0.2" height="0.2"/>
		<rect x="176.8" y="96" class="st19" width="0.2" height="0.2"/>
		<rect x="176.6" y="96.2" class="st19" width="0.2" height="0.2"/>
		
			<rect x="176.8" y="96.3" transform="matrix(2.625373e-02 -0.9997 0.9997 2.625373e-02 75.9113 270.7718)" class="st19" width="0.2" height="0.2"/>
		<rect x="176.6" y="96.5" class="st19" width="0.2" height="0.2"/>
		<rect x="176.8" y="96.7" class="st19" width="0.2" height="0.2"/>
		<rect x="176.6" y="96.9" class="st19" width="0.2" height="0.2"/>
		
			<rect x="176.8" y="97" transform="matrix(2.521221e-02 -0.9997 0.9997 2.521221e-02 75.313 271.4594)" class="st19" width="0.2" height="0.2"/>
		<polygon class="st19" points="176.6,97.2 176.6,97.4 176.8,97.4 176.8,97.2 		"/>
		<rect x="177" y="94.8" class="st19" width="0.2" height="0.2"/>
		<polygon class="st19" points="177.3,95.2 177.3,95 177.2,95 177.2,95.2 		"/>
		<rect x="177" y="95.2" class="st19" width="0.2" height="0.2"/>
		<rect x="177.2" y="95.3" class="st19" width="0.2" height="0.2"/>
		<rect x="177" y="95.5" class="st19" width="0.2" height="0.2"/>
		<rect x="177.2" y="95.7" class="st19" width="0.2" height="0.2"/>
		<rect x="177" y="95.8" class="st19" width="0.2" height="0.2"/>
		<rect x="177.2" y="96" class="st19" width="0.2" height="0.2"/>
		<rect x="177" y="96.2" class="st19" width="0.2" height="0.2"/>
		
			<rect x="177.2" y="96.3" transform="matrix(3.125502e-02 -0.9995 0.9995 3.125502e-02 75.4128 270.5805)" class="st19" width="0.2" height="0.2"/>
		<rect x="177" y="96.5" class="st19" width="0.2" height="0.2"/>
		<rect x="177.2" y="96.7" class="st19" width="0.2" height="0.2"/>
		<rect x="177" y="96.9" class="st19" width="0.2" height="0.2"/>
		<polygon class="st19" points="177.2,97 177.2,97.2 177.3,97.2 177.3,97 		"/>
		<rect x="177" y="97.2" class="st19" width="0.2" height="0.2"/>
		<rect x="177.3" y="94.8" class="st19" width="0.2" height="0.2"/>
		<rect x="177.5" y="95" class="st19" width="0.2" height="0.2"/>
		<rect x="177.3" y="95.2" class="st19" width="0.2" height="0.2"/>
		
			<rect x="177.5" y="95.3" transform="matrix(2.527854e-02 -0.9997 0.9997 2.527854e-02 77.7282 270.5111)" class="st19" width="0.2" height="0.2"/>
		<rect x="177.3" y="95.5" class="st19" width="0.2" height="0.2"/>
		<polygon class="st19" points="177.7,95.8 177.7,95.7 177.5,95.7 177.5,95.8 		"/>
		<rect x="177.3" y="95.8" class="st19" width="0.2" height="0.2"/>
		<rect x="177.5" y="96" class="st19" width="0.2" height="0.2"/>
		<rect x="177.3" y="96.2" class="st19" width="0.2" height="0.2"/>
		
			<rect x="177.5" y="96.3" transform="matrix(2.550358e-02 -0.9997 0.9997 2.550358e-02 76.7188 271.5593)" class="st19" width="0.2" height="0.2"/>
		<rect x="177.3" y="96.5" class="st19" width="0.2" height="0.2"/>
		<rect x="177.5" y="96.7" class="st19" width="0.2" height="0.2"/>
		<rect x="177.3" y="96.9" class="st19" width="0.2" height="0.2"/>
		<polygon class="st19" points="177.5,97 177.5,97.2 177.7,97.2 177.7,97 		"/>
		<rect x="177.3" y="97.2" class="st19" width="0.2" height="0.2"/>
		<rect x="177.7" y="94.8" class="st19" width="0.2" height="0.2"/>
		<rect x="177.9" y="95" class="st19" width="0.2" height="0.2"/>
		<rect x="177.7" y="95.2" class="st19" width="0.2" height="0.2"/>
		<rect x="177.9" y="95.3" class="st19" width="0.2" height="0.2"/>
		<rect x="177.7" y="95.5" class="st19" width="0.2" height="0.2"/>
		<rect x="177.9" y="95.7" class="st19" width="0.2" height="0.2"/>
		<rect x="177.7" y="95.8" class="st19" width="0.2" height="0.2"/>
		<rect x="177.9" y="96" class="st19" width="0.2" height="0.2"/>
		<rect x="177.7" y="96.2" class="st19" width="0.2" height="0.2"/>
		<rect x="177.9" y="96.4" class="st19" width="0.2" height="0.2"/>
		
			<rect x="177.7" y="96.5" transform="matrix(0.9997 -2.519727e-02 2.519727e-02 0.9997 -2.3776 4.5108)" class="st19" width="0.2" height="0.2"/>
		<rect x="177.9" y="96.7" class="st19" width="0.2" height="0.2"/>
		
			<rect x="177.7" y="96.9" transform="matrix(0.9997 -2.487729e-02 2.487729e-02 0.9997 -2.3581 4.4533)" class="st19" width="0.2" height="0.2"/>
		<polygon class="st19" points="177.9,97 177.9,97.2 178,97.2 178,97 		"/>
		
			<rect x="177.7" y="97.2" transform="matrix(0.9997 -2.560898e-02 2.560898e-02 0.9997 -2.4335 4.5853)" class="st19" width="0.2" height="0.2"/>
		<rect x="178" y="94.8" class="st19" width="0.2" height="0.2"/>
		<rect x="178.2" y="95" class="st19" width="0.2" height="0.2"/>
		<rect x="178" y="95.2" class="st19" width="0.2" height="0.2"/>
		
			<rect x="178.2" y="95.3" transform="matrix(2.518538e-02 -0.9997 0.9997 2.518538e-02 78.429 271.2382)" class="st19" width="0.2" height="0.2"/>
		<rect x="178" y="95.5" class="st19" width="0.2" height="0.2"/>
		<rect x="178.2" y="95.7" class="st19" width="0.2" height="0.2"/>
		<rect x="178" y="95.8" class="st19" width="0.2" height="0.2"/>
		<rect x="178.2" y="96" class="st19" width="0.2" height="0.2"/>
		
			<rect x="178.1" y="96.2" transform="matrix(2.574725e-02 -0.9997 0.9997 2.574725e-02 77.3079 271.9043)" class="st19" width="0.2" height="0.2"/>
		
			<rect x="178.3" y="96.3" transform="matrix(2.559825e-02 -0.9997 0.9997 2.559825e-02 77.3846 272.267)" class="st19" width="0.2" height="0.2"/>
		<rect x="178" y="96.5" class="st19" width="0.2" height="0.2"/>
		<rect x="178.2" y="96.7" class="st19" width="0.2" height="0.2"/>
		<rect x="178" y="96.9" class="st19" width="0.2" height="0.2"/>
		<rect x="178.2" y="97" class="st19" width="0.2" height="0.2"/>
		<polygon class="st19" points="178,97.2 178,97.4 178.2,97.4 178.2,97.2 		"/>
		<rect x="178.4" y="94.8" class="st19" width="0.2" height="0.2"/>
		<rect x="178.6" y="95" class="st19" width="0.2" height="0.2"/>
		<rect x="178.4" y="95.2" class="st19" width="0.2" height="0.2"/>
		<rect x="178.6" y="95.3" class="st19" width="0.2" height="0.2"/>
		<rect x="178.4" y="95.5" class="st19" width="0.2" height="0.2"/>
		<rect x="178.6" y="95.7" class="st19" width="0.2" height="0.2"/>
		<rect x="178.4" y="95.8" class="st19" width="0.2" height="0.2"/>
		<rect x="178.6" y="96" class="st19" width="0.2" height="0.2"/>
		<rect x="178.4" y="96.2" class="st19" width="0.2" height="0.2"/>
		<rect x="178.6" y="96.4" class="st19" width="0.2" height="0.2"/>
		
			<rect x="178.4" y="96.5" transform="matrix(0.9997 -2.510439e-02 2.510439e-02 0.9997 -2.3688 4.5116)" class="st19" width="0.2" height="0.2"/>
		<rect x="178.6" y="96.7" class="st19" width="0.2" height="0.2"/>
		
			<rect x="178.4" y="96.9" transform="matrix(0.9997 -2.478559e-02 2.478559e-02 0.9997 -2.3494 4.4541)" class="st19" width="0.2" height="0.2"/>
		<polygon class="st19" points="178.6,97 178.6,97.2 178.7,97.2 178.7,97 		"/>
		
			<rect x="178.4" y="97.2" transform="matrix(0.9997 -2.551460e-02 2.551460e-02 0.9997 -2.4245 4.5861)" class="st19" width="0.2" height="0.2"/>
		<polygon class="st19" points="178.9,95 178.9,94.8 178.7,94.8 178.7,95 		"/>
		
			<rect x="178.9" y="95" transform="matrix(0.9997 -2.488038e-02 2.488038e-02 0.9997 -2.3107 4.4831)" class="st19" width="0.2" height="0.2"/>
		<rect x="178.7" y="95.2" class="st19" width="0.2" height="0.2"/>
		<rect x="178.9" y="95.3" class="st19" width="0.2" height="0.2"/>
		<polygon class="st19" points="178.9,95.7 178.9,95.5 178.7,95.5 178.7,95.7 		"/>
		<polygon class="st19" points="179.1,95.8 179.1,95.7 178.9,95.7 178.9,95.8 		"/>
		<rect x="178.7" y="95.8" class="st19" width="0.2" height="0.2"/>
		<rect x="178.9" y="96" class="st19" width="0.2" height="0.2"/>
		<rect x="178.7" y="96.2" class="st19" width="0.2" height="0.2"/>
		
			<rect x="179" y="96.3" transform="matrix(3.215615e-02 -0.9995 0.9995 3.215615e-02 76.9068 272.32)" class="st19" width="0.2" height="0.2"/>
		<rect x="178.7" y="96.5" class="st19" width="0.2" height="0.2"/>
		<rect x="178.9" y="96.7" class="st19" width="0.2" height="0.2"/>
		<rect x="178.7" y="96.9" class="st19" width="0.2" height="0.2"/>
		<rect x="178.9" y="97" class="st19" width="0.2" height="0.2"/>
		<polygon class="st19" points="178.7,97.2 178.7,97.4 178.9,97.4 178.9,97.2 		"/>
		<polygon class="st19" points="179.3,95 179.3,94.8 179.1,94.8 179.1,95 		"/>
		<rect x="179.3" y="95" class="st19" width="0.2" height="0.2"/>
		
			<rect x="179.1" y="95.2" transform="matrix(0.9997 -2.583543e-02 2.583543e-02 0.9997 -2.4024 4.6617)" class="st19" width="0.2" height="0.2"/>
		<rect x="179.3" y="95.3" class="st19" width="0.2" height="0.2"/>
		<rect x="179.1" y="95.5" class="st19" width="0.2" height="0.2"/>
		<rect x="179.3" y="95.7" class="st19" width="0.2" height="0.2"/>
		<rect x="179.1" y="95.8" class="st19" width="0.2" height="0.2"/>
		
			<rect x="179.3" y="96" transform="matrix(0.9997 -2.518538e-02 2.518538e-02 0.9997 -2.3634 4.5488)" class="st19" width="0.2" height="0.2"/>
		<rect x="179.1" y="96.2" class="st19" width="0.2" height="0.2"/>
		
			<rect x="179.3" y="96.3" transform="matrix(2.559825e-02 -0.9997 0.9997 2.559825e-02 78.4581 273.2977)" class="st19" width="0.2" height="0.2"/>
		<rect x="179.1" y="96.5" class="st19" width="0.2" height="0.2"/>
		<rect x="179.3" y="96.7" class="st19" width="0.2" height="0.2"/>
		<rect x="179.1" y="96.9" class="st19" width="0.2" height="0.2"/>
		
			<rect x="179.2" y="97" transform="matrix(2.488038e-02 -0.9997 0.9997 2.488038e-02 77.8106 273.9523)" class="st19" width="0.2" height="0.2"/>
		<rect x="179.1" y="97.2" class="st19" width="0.2" height="0.2"/>
		
			<rect x="179.4" y="94.7" transform="matrix(3.203023e-02 -0.9995 0.9995 3.203023e-02 79.0163 271.2462)" class="st19" width="0.2" height="0.2"/>
		<rect x="179.6" y="95" class="st19" width="0.2" height="0.2"/>
		<rect x="179.4" y="95.2" class="st19" width="0.2" height="0.2"/>
		<rect x="179.6" y="95.3" class="st19" width="0.2" height="0.2"/>
		<rect x="179.4" y="95.5" class="st19" width="0.2" height="0.2"/>
		<polygon class="st19" points="179.8,95.8 179.8,95.7 179.6,95.7 179.6,95.8 		"/>
		
			<rect x="179.4" y="95.8" transform="matrix(0.9995 -3.163788e-02 3.163788e-02 0.9995 -2.9443 5.727)" class="st19" width="0.2" height="0.2"/>
		<rect x="179.6" y="96" class="st19" width="0.2" height="0.2"/>
		<rect x="179.4" y="96.2" class="st19" width="0.2" height="0.2"/>
		
			<rect x="179.7" y="96.4" transform="matrix(3.215615e-02 -0.9995 0.9995 3.215615e-02 77.5853 273.0299)" class="st19" width="0.2" height="0.2"/>
		<rect x="179.4" y="96.5" class="st19" width="0.2" height="0.2"/>
		<rect x="179.6" y="96.7" class="st19" width="0.2" height="0.2"/>
		<rect x="179.4" y="96.9" class="st19" width="0.2" height="0.2"/>
		<rect x="179.6" y="97" class="st19" width="0.2" height="0.2"/>
		<polygon class="st19" points="179.4,97.2 179.4,97.4 179.6,97.4 179.6,97.2 		"/>
		<rect x="179.8" y="94.8" class="st19" width="0.2" height="0.2"/>
		
			<rect x="180" y="95" transform="matrix(0.9997 -2.478797e-02 2.478797e-02 0.9997 -2.302 4.4936)" class="st19" width="0.2" height="0.2"/>
		<rect x="179.8" y="95.2" class="st19" width="0.2" height="0.2"/>
		<rect x="180" y="95.3" class="st19" width="0.2" height="0.2"/>
		<rect x="179.8" y="95.5" class="st19" width="0.2" height="0.2"/>
		
			<rect x="180" y="95.6" transform="matrix(2.447596e-02 -0.9997 0.9997 2.447596e-02 80.0173 273.4304)" class="st19" width="0.2" height="0.2"/>
		<rect x="179.8" y="95.8" class="st19" width="0.2" height="0.2"/>
		<rect x="180" y="96" class="st19" width="0.2" height="0.2"/>
		<rect x="179.8" y="96.2" class="st19" width="0.2" height="0.2"/>
		<rect x="180" y="96.4" class="st19" width="0.2" height="0.2"/>
		<rect x="179.8" y="96.5" class="st19" width="0.2" height="0.2"/>
		<rect x="180" y="96.7" class="st19" width="0.2" height="0.2"/>
		<rect x="179.8" y="96.9" class="st19" width="0.2" height="0.2"/>
		<rect x="180" y="97" class="st19" width="0.2" height="0.2"/>
		<rect x="179.8" y="97.2" class="st19" width="0.2" height="0.2"/>
		<polygon class="st19" points="180.3,95 180.3,94.8 180.2,94.8 180.1,95 		"/>
		<rect x="180.3" y="95" class="st19" width="0.2" height="0.2"/>
		<rect x="180.2" y="95.2" class="st19" width="0.2" height="0.2"/>
		<polygon class="st19" points="180.5,95.5 180.5,95.3 180.3,95.3 180.3,95.5 		"/>
		<rect x="180.2" y="95.5" class="st19" width="0.2" height="0.2"/>
		<polygon class="st19" points="180.5,95.8 180.5,95.7 180.3,95.7 180.3,95.8 		"/>
		<rect x="180.1" y="95.8" class="st19" width="0.2" height="0.2"/>
		<polygon class="st19" points="180.3,96 180.3,96.2 180.5,96.2 180.5,96 		"/>
		<rect x="180.2" y="96.2" class="st19" width="0.2" height="0.2"/>
		<polygon class="st19" points="180.3,96.4 180.3,96.5 180.5,96.5 180.5,96.4 		"/>
		<polygon class="st19" points="180.2,96.5 180.2,96.7 180.3,96.7 180.3,96.5 		"/>
		<rect x="180.3" y="96.7" class="st19" width="0.2" height="0.2"/>
		<rect x="180.2" y="96.9" class="st19" width="0.2" height="0.2"/>
		<rect x="180.3" y="97" class="st19" width="0.2" height="0.2"/>
		<polygon class="st19" points="180.2,97.2 180.2,97.4 180.3,97.4 180.3,97.2 		"/>
		<rect x="180.5" y="94.8" class="st19" width="0.2" height="0.2"/>
		<polygon class="st19" points="180.9,95.2 180.9,95 180.7,95 180.7,95.2 		"/>
		<rect x="180.5" y="95.2" class="st19" width="0.2" height="0.2"/>
		<rect x="180.7" y="95.3" class="st19" width="0.2" height="0.2"/>
		<rect x="180.5" y="95.5" class="st19" width="0.2" height="0.2"/>
		<polygon class="st19" points="180.9,95.8 180.9,95.7 180.7,95.7 180.7,95.8 		"/>
		<polygon class="st19" points="180.7,96 180.7,95.8 180.5,95.8 180.5,96 		"/>
		<rect x="180.7" y="96" class="st19" width="0.2" height="0.2"/>
		
			<rect x="180.5" y="96.2" transform="matrix(2.551460e-02 -0.9997 0.9997 2.551460e-02 79.7877 274.3695)" class="st19" width="0.2" height="0.2"/>
		
			<rect x="180.7" y="96.3" transform="matrix(2.518538e-02 -0.9997 0.9997 2.518538e-02 79.8941 274.7552)" class="st19" width="0.2" height="0.2"/>
		<rect x="180.5" y="96.5" class="st19" width="0.2" height="0.2"/>
		<rect x="180.7" y="96.7" class="st19" width="0.2" height="0.2"/>
		
			<rect x="180.5" y="96.9" transform="matrix(0.9997 -2.541493e-02 2.541493e-02 0.9997 -2.407 4.6214)" class="st19" width="0.2" height="0.2"/>
		
			<rect x="180.6" y="97" transform="matrix(2.488038e-02 -0.9997 0.9997 2.488038e-02 79.1754 275.3673)" class="st19" width="0.2" height="0.2"/>
		<rect x="180.5" y="97.2" class="st19" width="0.2" height="0.2"/>
		<polygon class="st19" points="181,95 181,94.8 180.9,94.8 180.9,95 		"/>
		
			<rect x="181.1" y="95" transform="matrix(2.551460e-02 -0.9997 0.9997 2.551460e-02 81.4787 273.7668)" class="st19" width="0.2" height="0.2"/>
		<rect x="180.9" y="95.2" class="st19" width="0.2" height="0.2"/>
		<rect x="181" y="95.3" class="st19" width="0.2" height="0.2"/>
		<polygon class="st19" points="181,95.7 181,95.5 180.9,95.5 180.9,95.7 		"/>
		
			<rect x="181.1" y="95.7" transform="matrix(2.518538e-02 -0.9997 0.9997 2.518538e-02 80.8614 274.4833)" class="st19" width="0.2" height="0.2"/>
		<polygon class="st19" points="181,96 181,95.8 180.9,95.8 180.9,96 		"/>
		<rect x="181" y="96" class="st19" width="0.2" height="0.2"/>
		<rect x="180.9" y="96.2" class="st19" width="0.2" height="0.2"/>
		<polygon class="st19" points="181,96.4 181,96.5 181.2,96.5 181.2,96.4 		"/>
		<polygon class="st19" points="180.9,96.5 180.9,96.7 181,96.7 181,96.5 		"/>
		<rect x="181" y="96.7" class="st19" width="0.2" height="0.2"/>
		<polygon class="st19" points="180.9,96.9 180.9,97 181,97 181,96.9 		"/>
		<rect x="181" y="97" class="st19" width="0.2" height="0.2"/>
		<polygon class="st19" points="180.9,97.2 180.9,97.4 181,97.4 181,97.2 		"/>
		<rect x="181.2" y="94.8" class="st19" width="0.2" height="0.2"/>
		<rect x="181.4" y="95" class="st19" width="0.2" height="0.2"/>
		<rect x="181.2" y="95.2" class="st19" width="0.2" height="0.2"/>
		<rect x="181.4" y="95.3" class="st19" width="0.2" height="0.2"/>
		<rect x="181.2" y="95.5" class="st19" width="0.2" height="0.2"/>
		<polygon class="st19" points="181.6,95.8 181.6,95.7 181.4,95.7 181.4,95.8 		"/>
		<rect x="181.2" y="95.8" class="st19" width="0.2" height="0.2"/>
		<rect x="181.4" y="96" class="st19" width="0.2" height="0.2"/>
		<rect x="181.2" y="96.2" class="st19" width="0.2" height="0.2"/>
		
			<rect x="181.4" y="96.3" transform="matrix(2.559825e-02 -0.9997 0.9997 2.559825e-02 80.5051 275.4261)" class="st19" width="0.2" height="0.2"/>
		<rect x="181.2" y="96.5" class="st19" width="0.2" height="0.2"/>
		<rect x="181.4" y="96.7" class="st19" width="0.2" height="0.2"/>
		<rect x="181.2" y="96.9" class="st19" width="0.2" height="0.2"/>
		<rect x="181.4" y="97" class="st19" width="0.2" height="0.2"/>
		<rect x="181.2" y="97.2" class="st19" width="0.2" height="0.2"/>
		<rect x="181.6" y="94.8" class="st19" width="0.2" height="0.2"/>
		<rect x="181.7" y="95" class="st19" width="0.2" height="0.2"/>
		<rect x="181.6" y="95.2" class="st19" width="0.2" height="0.2"/>
		<rect x="181.7" y="95.3" class="st19" width="0.2" height="0.2"/>
		<rect x="181.6" y="95.5" class="st19" width="0.2" height="0.2"/>
		<rect x="181.7" y="95.7" class="st19" width="0.2" height="0.2"/>
		<rect x="181.6" y="95.8" class="st19" width="0.2" height="0.2"/>
		<rect x="181.7" y="96" class="st19" width="0.2" height="0.2"/>
		<rect x="181.6" y="96.2" class="st19" width="0.2" height="0.2"/>
		<rect x="181.7" y="96.4" class="st19" width="0.2" height="0.2"/>
		<polygon class="st19" points="181.6,96.5 181.6,96.7 181.7,96.7 181.7,96.5 		"/>
		<polygon class="st19" points="181.7,96.7 181.7,96.9 181.9,96.9 181.9,96.7 		"/>
		<polygon class="st19" points="181.6,96.9 181.6,97 181.7,97 181.7,96.9 		"/>
		<rect x="181.7" y="97" class="st19" width="0.2" height="0.2"/>
		<polygon class="st19" points="181.6,97.2 181.6,97.4 181.7,97.4 181.7,97.2 		"/>
		<polygon class="st19" points="182.1,95 182.1,94.8 181.9,94.8 181.9,95 		"/>
		<rect x="182.1" y="95" class="st19" width="0.2" height="0.2"/>
		<rect x="181.9" y="95.2" class="st19" width="0.2" height="0.2"/>
		<rect x="182.1" y="95.3" class="st19" width="0.2" height="0.2"/>
		<polygon class="st19" points="182.1,95.7 182.1,95.5 181.9,95.5 181.9,95.7 		"/>
		<rect x="182.1" y="95.7" class="st19" width="0.2" height="0.2"/>
		<rect x="181.9" y="95.8" class="st19" width="0.2" height="0.2"/>
		<rect x="182.1" y="96" class="st19" width="0.2" height="0.2"/>
		<rect x="181.9" y="96.2" class="st19" width="0.2" height="0.2"/>
		<rect x="182.1" y="96.4" class="st19" width="0.2" height="0.2"/>
		<rect x="181.9" y="96.5" class="st19" width="0.2" height="0.2"/>
		<rect x="182.1" y="96.7" class="st19" width="0.2" height="0.2"/>
		<rect x="181.9" y="96.9" class="st19" width="0.2" height="0.2"/>
		<rect x="182.1" y="97" class="st19" width="0.2" height="0.2"/>
		<polygon class="st19" points="181.9,97.2 181.9,97.4 182.1,97.4 182.1,97.2 		"/>
		<rect x="182.3" y="94.8" class="st19" width="0.2" height="0.2"/>
		
			<rect x="182.5" y="94.9" transform="matrix(3.125502e-02 -0.9995 0.9995 3.125502e-02 81.9061 274.5331)" class="st19" width="0.2" height="0.2"/>
		<rect x="182.3" y="95.2" class="st19" width="0.2" height="0.2"/>
		<rect x="182.5" y="95.3" class="st19" width="0.2" height="0.2"/>
		<rect x="182.3" y="95.5" class="st19" width="0.2" height="0.2"/>
		<rect x="182.5" y="95.7" class="st19" width="0.2" height="0.2"/>
		<rect x="182.3" y="95.8" class="st19" width="0.2" height="0.2"/>
		<rect x="182.5" y="96" class="st19" width="0.2" height="0.2"/>
		<rect x="182.3" y="96.2" class="st19" width="0.2" height="0.2"/>
		<rect x="182.5" y="96.4" class="st19" width="0.2" height="0.2"/>
		<rect x="182.3" y="96.5" class="st19" width="0.2" height="0.2"/>
		<rect x="182.5" y="96.7" class="st19" width="0.2" height="0.2"/>
		<rect x="182.3" y="96.9" class="st19" width="0.2" height="0.2"/>
		<polygon class="st19" points="182.5,97 182.5,97.2 182.6,97.2 182.6,97 		"/>
		<rect x="182.3" y="97.2" class="st19" width="0.2" height="0.2"/>
		<rect x="182.6" y="94.8" class="st19" width="0.2" height="0.2"/>
		<rect x="182.8" y="95" class="st19" width="0.2" height="0.2"/>
		<rect x="182.6" y="95.2" class="st19" width="0.2" height="0.2"/>
		<rect x="182.8" y="95.3" class="st19" width="0.2" height="0.2"/>
		<polygon class="st19" points="182.8,95.7 182.8,95.5 182.6,95.5 182.6,95.7 		"/>
		<polygon class="st19" points="183,95.8 183,95.7 182.8,95.7 182.8,95.8 		"/>
		<rect x="182.6" y="95.8" class="st19" width="0.2" height="0.2"/>
		<rect x="182.8" y="96" class="st19" width="0.2" height="0.2"/>
		<rect x="182.6" y="96.2" class="st19" width="0.2" height="0.2"/>
		<rect x="182.8" y="96.4" class="st19" width="0.2" height="0.2"/>
		<rect x="182.6" y="96.5" class="st19" width="0.2" height="0.2"/>
		<rect x="182.8" y="96.7" class="st19" width="0.2" height="0.2"/>
		<rect x="182.6" y="96.9" class="st19" width="0.2" height="0.2"/>
		<rect x="182.8" y="97" class="st19" width="0.2" height="0.2"/>
		<rect x="182.6" y="97.2" class="st19" width="0.2" height="0.2"/>
		<rect x="183" y="94.8" class="st19" width="0.2" height="0.2"/>
		
			<rect x="183.2" y="94.9" transform="matrix(2.551460e-02 -0.9997 0.9997 2.551460e-02 83.6288 275.8057)" class="st19" width="0.2" height="0.2"/>
		<rect x="183" y="95.2" class="st19" width="0.2" height="0.2"/>
		<rect x="183.2" y="95.3" class="st19" width="0.2" height="0.2"/>
		<rect x="183" y="95.5" class="st19" width="0.2" height="0.2"/>
		<polygon class="st19" points="183.3,95.8 183.3,95.7 183.2,95.7 183.2,95.8 		"/>
		<rect x="183" y="95.8" class="st19" width="0.2" height="0.2"/>
		<rect x="183.2" y="96" class="st19" width="0.2" height="0.2"/>
		<rect x="183" y="96.2" class="st19" width="0.2" height="0.2"/>
		<rect x="183.2" y="96.4" class="st19" width="0.2" height="0.2"/>
		<rect x="183" y="96.5" class="st19" width="0.2" height="0.2"/>
		<rect x="183.2" y="96.7" class="st19" width="0.2" height="0.2"/>
		<rect x="183" y="96.9" class="st19" width="0.2" height="0.2"/>
		<rect x="183.2" y="97" class="st19" width="0.2" height="0.2"/>
		<rect x="183" y="97.2" class="st19" width="0.2" height="0.2"/>
		<rect x="183.3" y="94.8" class="st19" width="0.2" height="0.2"/>
		<rect x="183.5" y="95" class="st19" width="0.2" height="0.2"/>
		<rect x="183.3" y="95.2" class="st19" width="0.2" height="0.2"/>
		<polygon class="st19" points="183.7,95.5 183.7,95.3 183.5,95.3 183.5,95.5 		"/>
		<rect x="183.3" y="95.5" class="st19" width="0.2" height="0.2"/>
		<rect x="183.5" y="95.7" class="st19" width="0.2" height="0.2"/>
		<polygon class="st19" points="183.5,96 183.5,95.8 183.3,95.8 183.3,96 		"/>
		<rect x="183.5" y="96" class="st19" width="0.2" height="0.2"/>
		<rect x="183.3" y="96.2" class="st19" width="0.2" height="0.2"/>
		<polygon class="st19" points="183.5,96.4 183.5,96.5 183.7,96.5 183.7,96.4 		"/>
		<rect x="183.3" y="96.5" class="st19" width="0.2" height="0.2"/>
		<rect x="183.5" y="96.7" class="st19" width="0.2" height="0.2"/>
		<rect x="183.3" y="96.9" class="st19" width="0.2" height="0.2"/>
		<polygon class="st19" points="183.5,97 183.5,97.2 183.7,97.2 183.7,97 		"/>
		<rect x="183.3" y="97.2" class="st19" width="0.2" height="0.2"/>
		<rect x="183.7" y="94.8" class="st19" width="0.2" height="0.2"/>
		<rect x="183.9" y="95" class="st19" width="0.2" height="0.2"/>
		<rect x="183.7" y="95.2" class="st19" width="0.2" height="0.2"/>
		<polygon class="st19" points="184,95.5 184,95.3 183.9,95.3 183.9,95.5 		"/>
		<rect x="183.7" y="95.5" class="st19" width="0.2" height="0.2"/>
		<rect x="183.9" y="95.7" class="st19" width="0.2" height="0.2"/>
		<rect x="183.7" y="95.8" class="st19" width="0.2" height="0.2"/>
		
			<rect x="183.9" y="96" transform="matrix(0.9995 -3.173188e-02 3.173188e-02 0.9995 -2.9567 5.8871)" class="st19" width="0.2" height="0.2"/>
		<rect x="183.7" y="96.2" class="st19" width="0.2" height="0.2"/>
		<rect x="183.9" y="96.4" class="st19" width="0.2" height="0.2"/>
		<rect x="183.7" y="96.5" class="st19" width="0.2" height="0.2"/>
		<polygon class="st19" points="183.9,96.7 183.9,96.9 184,96.9 184,96.7 		"/>
		
			<rect x="183.7" y="96.9" transform="matrix(0.9997 -2.478559e-02 2.478559e-02 0.9997 -2.3477 4.5855)" class="st19" width="0.2" height="0.2"/>
		<rect x="183.9" y="97" class="st19" width="0.2" height="0.2"/>
		<polygon class="st19" points="183.7,97.2 183.7,97.4 183.9,97.4 183.9,97.2 		"/>
		<rect x="184" y="94.8" class="st19" width="0.2" height="0.2"/>
		<rect x="184.2" y="95" class="st19" width="0.2" height="0.2"/>
		<rect x="184" y="95.2" class="st19" width="0.2" height="0.2"/>
		
			<rect x="184.2" y="95.3" transform="matrix(3.163788e-02 -0.9995 0.9995 3.163788e-02 83.1014 276.6021)" class="st19" width="0.2" height="0.2"/>
		<rect x="184" y="95.5" class="st19" width="0.2" height="0.2"/>
		<rect x="184.2" y="95.7" class="st19" width="0.2" height="0.2"/>
		<rect x="184" y="95.8" class="st19" width="0.2" height="0.2"/>
		<rect x="184.2" y="96" class="st19" width="0.2" height="0.2"/>
		
			<rect x="184.1" y="96.2" transform="matrix(2.510439e-02 -0.9997 0.9997 2.510439e-02 83.2657 277.9818)" class="st19" width="0.2" height="0.2"/>
		<rect x="184.2" y="96.4" class="st19" width="0.2" height="0.2"/>
		
			<rect x="184" y="96.5" transform="matrix(2.551460e-02 -0.9997 0.9997 2.551460e-02 82.811 278.2297)" class="st19" width="0.2" height="0.2"/>
		<rect x="184.2" y="96.7" class="st19" width="0.2" height="0.2"/>
		<rect x="184" y="96.9" class="st19" width="0.2" height="0.2"/>
		<rect x="184.2" y="97" class="st19" width="0.2" height="0.2"/>
		<polygon class="st19" points="184,97.2 184,97.4 184.2,97.4 184.2,97.2 		"/>
		<rect x="184.4" y="94.8" class="st19" width="0.2" height="0.2"/>
		<polygon class="st19" points="184.7,95.2 184.8,95 184.6,95 184.6,95.2 		"/>
		<rect x="184.4" y="95.2" class="st19" width="0.2" height="0.2"/>
		<polygon class="st19" points="184.7,95.5 184.8,95.3 184.6,95.3 184.6,95.5 		"/>
		<rect x="184.4" y="95.5" class="st19" width="0.2" height="0.2"/>
		
			<rect x="184.6" y="95.6" transform="matrix(2.456721e-02 -0.9997 0.9997 2.456721e-02 84.4889 278.0134)" class="st19" width="0.2" height="0.2"/>
		<rect x="184.4" y="95.8" class="st19" width="0.2" height="0.2"/>
		<rect x="184.6" y="96" class="st19" width="0.2" height="0.2"/>
		
			<rect x="184.4" y="96.2" transform="matrix(0.9995 -3.153622e-02 3.153622e-02 0.9995 -2.9451 5.8663)" class="st19" width="0.2" height="0.2"/>
		
			<rect x="184.6" y="96.3" transform="matrix(2.518538e-02 -0.9997 0.9997 2.518538e-02 83.6963 278.6413)" class="st19" width="0.2" height="0.2"/>
		<rect x="184.4" y="96.5" class="st19" width="0.2" height="0.2"/>
		<polygon class="st19" points="184.6,96.7 184.6,96.9 184.7,96.9 184.8,96.7 		"/>
		<polygon class="st19" points="184.4,96.9 184.4,97 184.6,97 184.6,96.9 		"/>
		<polygon class="st19" points="184.6,97 184.6,97.2 184.7,97.2 184.8,97 		"/>
		
			<rect x="184.4" y="97.2" transform="matrix(0.9995 -3.205115e-02 3.205115e-02 0.9995 -3.0238 5.9635)" class="st19" width="0.2" height="0.2"/>
		<rect x="184.8" y="94.8" class="st19" width="0.2" height="0.2"/>
		
			<rect x="184.9" y="95" transform="matrix(2.488038e-02 -0.9997 0.9997 2.488038e-02 85.3937 277.6965)" class="st19" width="0.2" height="0.2"/>
		<polygon class="st19" points="184.9,95.3 184.9,95.2 184.7,95.2 184.8,95.3 		"/>
		<polygon class="st19" points="185.1,95.5 185.1,95.3 184.9,95.3 184.9,95.5 		"/>
		<rect x="184.7" y="95.5" class="st19" width="0.2" height="0.2"/>
		
			<rect x="185" y="95.7" transform="matrix(2.456721e-02 -0.9997 0.9997 2.456721e-02 84.7769 278.4118)" class="st19" width="0.2" height="0.2"/>
		<polygon class="st19" points="184.9,96 184.9,95.8 184.7,95.8 184.8,96 		"/>
		<rect x="184.9" y="96" class="st19" width="0.2" height="0.2"/>
		<rect x="184.8" y="96.2" class="st19" width="0.2" height="0.2"/>
		<rect x="184.9" y="96.4" class="st19" width="0.2" height="0.2"/>
		<rect x="184.8" y="96.5" class="st19" width="0.2" height="0.2"/>
		<polygon class="st19" points="184.9,96.7 184.9,96.9 185.1,96.9 185.1,96.7 		"/>
		<polygon class="st19" points="184.7,96.9 184.8,97 184.9,97 184.9,96.9 		"/>
		<polygon class="st19" points="184.9,97 184.9,97.2 185.1,97.2 185.1,97 		"/>
		<polygon class="st19" points="184.7,97.2 184.8,97.4 184.9,97.4 184.9,97.2 		"/>
		<rect x="185.1" y="94.8" class="st19" width="0.2" height="0.2"/>
		
			<rect x="185.3" y="94.9" transform="matrix(2.488038e-02 -0.9997 0.9997 2.488038e-02 85.7881 278.0084)" class="st19" width="0.2" height="0.2"/>
		<polygon class="st19" points="185.3,95.3 185.3,95.2 185.1,95.2 185.1,95.3 		"/>
		
			<rect x="185.3" y="95.3" transform="matrix(2.518538e-02 -0.9997 0.9997 2.518538e-02 85.352 278.2677)" class="st19" width="0.2" height="0.2"/>
		<rect x="185.1" y="95.5" class="st19" width="0.2" height="0.2"/>
		<rect x="185.3" y="95.7" class="st19" width="0.2" height="0.2"/>
		<rect x="185.1" y="95.8" class="st19" width="0.2" height="0.2"/>
		<rect x="185.3" y="96" class="st19" width="0.2" height="0.2"/>
		<polygon class="st19" points="185.1,96.2 185.1,96.4 185.3,96.4 185.3,96.2 		"/>
		<rect x="185.3" y="96.4" class="st19" width="0.2" height="0.2"/>
		<rect x="185.1" y="96.5" class="st19" width="0.2" height="0.2"/>
		<polygon class="st19" points="185.3,96.7 185.3,96.9 185.5,96.9 185.5,96.7 		"/>
		<polygon class="st19" points="185.1,96.9 185.1,97 185.3,97 185.3,96.9 		"/>
		<rect x="185.3" y="97" class="st19" width="0.2" height="0.2"/>
		<rect x="185.1" y="97.2" class="st19" width="0.2" height="0.2"/>
		<polygon class="st19" points="185.6,95 185.6,94.8 185.5,94.8 185.5,95 		"/>
		<rect x="185.6" y="95" class="st19" width="0.2" height="0.2"/>
		<rect x="185.5" y="95.2" class="st19" width="0.2" height="0.2"/>
		<rect x="185.6" y="95.3" class="st19" width="0.2" height="0.2"/>
		<rect x="185.5" y="95.5" class="st19" width="0.2" height="0.2"/>
		<polygon class="st19" points="185.8,95.8 185.8,95.7 185.6,95.7 185.6,95.8 		"/>
		<rect x="185.5" y="95.8" class="st19" width="0.2" height="0.2"/>
		<rect x="185.6" y="96" class="st19" width="0.2" height="0.2"/>
		<rect x="185.5" y="96.2" class="st19" width="0.2" height="0.2"/>
		<rect x="185.6" y="96.4" class="st19" width="0.2" height="0.2"/>
		
			<rect x="185.5" y="96.5" transform="matrix(0.9997 -2.551460e-02 2.551460e-02 0.9997 -2.4043 4.7671)" class="st19" width="0.2" height="0.2"/>
		<rect x="185.6" y="96.7" class="st19" width="0.2" height="0.2"/>
		<rect x="185.5" y="96.9" class="st19" width="0.2" height="0.2"/>
		<rect x="185.6" y="97" class="st19" width="0.2" height="0.2"/>
		<polygon class="st19" points="185.5,97.2 185.5,97.4 185.6,97.4 185.6,97.2 		"/>
		<rect x="185.8" y="94.8" class="st19" width="0.2" height="0.2"/>
		<rect x="186" y="95" class="st19" width="0.2" height="0.2"/>
		<rect x="185.8" y="95.2" class="st19" width="0.2" height="0.2"/>
		<rect x="186" y="95.3" class="st19" width="0.2" height="0.2"/>
		<rect x="185.8" y="95.5" class="st19" width="0.2" height="0.2"/>
		<rect x="186" y="95.7" class="st19" width="0.2" height="0.2"/>
		<rect x="185.8" y="95.8" class="st19" width="0.2" height="0.2"/>
		<rect x="186" y="96" class="st19" width="0.2" height="0.2"/>
		<rect x="185.8" y="96.2" class="st19" width="0.2" height="0.2"/>
		<rect x="186" y="96.4" class="st19" width="0.2" height="0.2"/>
		<rect x="185.8" y="96.5" class="st19" width="0.2" height="0.2"/>
		<rect x="186" y="96.7" class="st19" width="0.2" height="0.2"/>
		<rect x="185.8" y="96.9" class="st19" width="0.2" height="0.2"/>
		<rect x="186" y="97" class="st19" width="0.2" height="0.2"/>
		<rect x="185.8" y="97.2" class="st19" width="0.2" height="0.2"/>
		<rect x="186.2" y="94.8" class="st19" width="0.2" height="0.2"/>
		<polygon class="st19" points="186.5,95.2 186.5,95 186.3,95 186.3,95.2 		"/>
		<rect x="186.2" y="95.2" class="st19" width="0.2" height="0.2"/>
		<polygon class="st19" points="186.5,95.5 186.5,95.3 186.3,95.3 186.3,95.5 		"/>
		<rect x="186.2" y="95.5" class="st19" width="0.2" height="0.2"/>
		<rect x="186.3" y="95.7" class="st19" width="0.2" height="0.2"/>
		<rect x="186.2" y="95.8" class="st19" width="0.2" height="0.2"/>
		<polygon class="st19" points="186.3,96 186.3,96.2 186.5,96.2 186.5,96 		"/>
		<rect x="186.2" y="96.2" class="st19" width="0.2" height="0.2"/>
		<rect x="186.3" y="96.4" class="st19" width="0.2" height="0.2"/>
		<rect x="186.2" y="96.5" class="st19" width="0.2" height="0.2"/>
		<polygon class="st19" points="186.3,96.7 186.3,96.9 186.5,96.9 186.5,96.7 		"/>
		<rect x="186.2" y="96.9" class="st19" width="0.2" height="0.2"/>
		<polygon class="st19" points="186.3,97 186.3,97.2 186.5,97.2 186.5,97 		"/>
		<rect x="186.2" y="97.2" class="st19" width="0.2" height="0.2"/>
		<rect x="186.5" y="94.8" class="st19" width="0.2" height="0.2"/>
		
			<rect x="186.7" y="95" transform="matrix(3.125502e-02 -0.9995 0.9995 3.125502e-02 85.9726 278.8037)" class="st19" width="0.2" height="0.2"/>
		<polygon class="st19" points="186.7,95.3 186.7,95.2 186.5,95.2 186.5,95.3 		"/>
		<rect x="186.7" y="95.3" class="st19" width="0.2" height="0.2"/>
		<rect x="186.5" y="95.5" class="st19" width="0.2" height="0.2"/>
		
			<rect x="186.7" y="95.7" transform="matrix(0.9997 -2.456721e-02 2.456721e-02 0.9997 -2.2972 4.6181)" class="st19" width="0.2" height="0.2"/>
		<rect x="186.5" y="95.8" class="st19" width="0.2" height="0.2"/>
		<rect x="186.7" y="96" class="st19" width="0.2" height="0.2"/>
		<rect x="186.5" y="96.2" class="st19" width="0.2" height="0.2"/>
		<rect x="186.7" y="96.4" class="st19" width="0.2" height="0.2"/>
		<rect x="186.5" y="96.5" class="st19" width="0.2" height="0.2"/>
		<rect x="186.7" y="96.7" class="st19" width="0.2" height="0.2"/>
		<polygon class="st19" points="186.5,96.9 186.5,97 186.7,97 186.7,96.9 		"/>
		<rect x="186.7" y="97" class="st19" width="0.2" height="0.2"/>
		<rect x="186.5" y="97.2" class="st19" width="0.2" height="0.2"/>
		<polygon class="st19" points="187.1,95 187,94.8 186.9,94.8 186.9,95 		"/>
		<polygon class="st19" points="187.2,95.2 187.2,95 187.1,95 187,95.2 		"/>
		<polygon class="st19" points="187,95.3 187,95.2 186.9,95.2 186.9,95.3 		"/>
		<rect x="187.1" y="95.3" class="st19" width="0.2" height="0.2"/>
		<rect x="186.9" y="95.5" class="st19" width="0.2" height="0.2"/>
		<rect x="187.1" y="95.7" class="st19" width="0.2" height="0.2"/>
		<polygon class="st19" points="187.1,96 187,95.8 186.9,95.8 186.9,96 		"/>
		
			<rect x="187" y="95.9" transform="matrix(3.163788e-02 -0.9995 0.9995 3.163788e-02 85.2313 280.0471)" class="st19" width="0.2" height="0.2"/>
		
			<rect x="186.9" y="96.1" transform="matrix(2.551460e-02 -0.9997 0.9997 2.551460e-02 86.0249 280.7056)" class="st19" width="0.2" height="0.2"/>
		
			<rect x="187.1" y="96.4" transform="matrix(0.9995 -3.215615e-02 3.215615e-02 0.9995 -3.0062 6.0697)" class="st19" width="0.2" height="0.2"/>
		<polygon class="st19" points="186.9,96.5 186.9,96.7 187,96.7 187.1,96.5 		"/>
		
			<rect x="187.1" y="96.7" transform="matrix(0.9995 -3.215615e-02 3.215615e-02 0.9995 -3.0159 6.0698)" class="st19" width="0.2" height="0.2"/>
		<rect x="186.9" y="96.9" class="st19" width="0.2" height="0.2"/>
		
			<rect x="187.1" y="97" transform="matrix(0.9995 -3.245386e-02 3.245386e-02 0.9995 -3.0527 6.1266)" class="st19" width="0.2" height="0.2"/>
		<polygon class="st19" points="186.9,97.2 186.9,97.4 187.1,97.4 187.1,97.2 		"/>
		<rect x="187.2" y="94.8" class="st19" width="0.2" height="0.2"/>
		<rect x="187.4" y="95" class="st19" width="0.2" height="0.2"/>
		<polygon class="st19" points="187.4,95.3 187.4,95.2 187.2,95.2 187.2,95.3 		"/>
		<rect x="187.4" y="95.3" class="st19" width="0.2" height="0.2"/>
		<rect x="187.2" y="95.5" class="st19" width="0.2" height="0.2"/>
		<rect x="187.4" y="95.7" class="st19" width="0.2" height="0.2"/>
		<rect x="187.2" y="95.8" class="st19" width="0.2" height="0.2"/>
		
			<rect x="187.4" y="96" transform="matrix(0.9997 -2.449014e-02 2.449014e-02 0.9997 -2.2973 4.6207)" class="st19" width="0.2" height="0.2"/>
		<rect x="187.2" y="96.2" class="st19" width="0.2" height="0.2"/>
		
			<rect x="187.4" y="96.4" transform="matrix(0.9995 -3.215615e-02 3.215615e-02 0.9995 -3.0061 6.0793)" class="st19" width="0.2" height="0.2"/>
		<rect x="187.2" y="96.5" class="st19" width="0.2" height="0.2"/>
		<polygon class="st19" points="187.4,96.7 187.4,96.9 187.6,96.9 187.6,96.7 		"/>
		<rect x="187.2" y="96.9" class="st19" width="0.2" height="0.2"/>
		
			<rect x="187.4" y="97" transform="matrix(0.9995 -3.205115e-02 3.205115e-02 0.9995 -3.0159 6.0595)" class="st19" width="0.2" height="0.2"/>
		<rect x="187.2" y="97.2" class="st19" width="0.2" height="0.2"/>
		
			<rect x="187.6" y="94.8" transform="matrix(0.9997 -2.549793e-02 2.549793e-02 0.9997 -2.3588 4.8169)" class="st19" width="0.2" height="0.2"/>
		<polygon class="st19" points="187.9,95.2 187.9,95 187.8,95 187.8,95.2 		"/>
		<rect x="187.6" y="95.2" class="st19" width="0.2" height="0.2"/>
		
			<rect x="187.7" y="95.3" transform="matrix(2.518538e-02 -0.9997 0.9997 2.518538e-02 87.79 280.7303)" class="st19" width="0.2" height="0.2"/>
		<rect x="187.6" y="95.5" class="st19" width="0.2" height="0.2"/>
		<rect x="187.8" y="95.7" class="st19" width="0.2" height="0.2"/>
		
			<rect x="187.6" y="95.8" transform="matrix(0.9997 -2.518538e-02 2.518538e-02 0.9997 -2.3558 4.7578)" class="st19" width="0.2" height="0.2"/>
		<polygon class="st19" points="187.8,96 187.8,96.2 187.9,96.2 187.9,96 		"/>
		<rect x="187.6" y="96.2" class="st19" width="0.2" height="0.2"/>
		<polygon class="st19" points="187.8,96.5 187.9,96.5 187.9,96.4 187.8,96.4 		"/>
		<rect x="187.6" y="96.5" class="st19" width="0.2" height="0.2"/>
		<polygon class="st19" points="187.8,96.7 187.8,96.9 187.9,96.9 187.9,96.7 		"/>
		<rect x="187.6" y="96.9" class="st19" width="0.2" height="0.2"/>
		<polygon class="st19" points="187.8,97 187.8,97.2 187.9,97.2 187.9,97 		"/>
		<rect x="187.6" y="97.2" class="st19" width="0.2" height="0.2"/>
		<rect x="187.9" y="94.8" class="st19" width="0.2" height="0.2"/>
		<polygon class="st19" points="188.3,95.2 188.3,95 188.1,95 188.1,95.2 		"/>
		<polygon class="st19" points="188.1,95.3 188.1,95.2 187.9,95.2 187.9,95.3 		"/>
		<rect x="188.1" y="95.3" class="st19" width="0.2" height="0.2"/>
		<rect x="187.9" y="95.5" class="st19" width="0.2" height="0.2"/>
		<rect x="188.1" y="95.7" class="st19" width="0.2" height="0.2"/>
		<rect x="187.9" y="95.8" class="st19" width="0.2" height="0.2"/>
		<rect x="188.1" y="96" class="st19" width="0.2" height="0.2"/>
		<rect x="187.9" y="96.2" class="st19" width="0.2" height="0.2"/>
		<rect x="188.1" y="96.4" class="st19" width="0.2" height="0.2"/>
		
			<rect x="187.9" y="96.5" transform="matrix(0.9999 -1.609531e-02 1.609531e-02 0.9999 -1.5305 3.0385)" class="st19" width="0.2" height="0.2"/>
		
			<rect x="188.1" y="96.7" transform="matrix(0.9999 -1.200846e-02 1.200846e-02 0.9999 -1.1488 2.2669)" class="st19" width="0.2" height="0.2"/>
		
			<rect x="187.9" y="96.9" transform="matrix(0.9997 -2.478559e-02 2.478559e-02 0.9997 -2.3465 4.6896)" class="st19" width="0.2" height="0.2"/>
		<rect x="188.1" y="97" class="st19" width="0.2" height="0.2"/>
		
			<rect x="187.9" y="97.2" transform="matrix(0.9997 -2.551460e-02 2.551460e-02 0.9997 -2.4214 4.8285)" class="st19" width="0.2" height="0.2"/>
		<rect x="188.3" y="94.8" class="st19" width="0.2" height="0.2"/>
		<rect x="188.5" y="95" class="st19" width="0.2" height="0.2"/>
		<polygon class="st19" points="188.5,95.3 188.5,95.2 188.3,95.2 188.3,95.3 		"/>
		<rect x="188.5" y="95.3" class="st19" width="0.2" height="0.2"/>
		<rect x="188.3" y="95.5" class="st19" width="0.2" height="0.2"/>
		<rect x="188.5" y="95.7" class="st19" width="0.2" height="0.2"/>
		<rect x="188.3" y="95.8" class="st19" width="0.2" height="0.2"/>
		<rect x="188.5" y="96" class="st19" width="0.2" height="0.2"/>
		<rect x="188.3" y="96.2" class="st19" width="0.2" height="0.2"/>
		<rect x="188.5" y="96.4" class="st19" width="0.2" height="0.2"/>
		<rect x="188.3" y="96.5" class="st19" width="0.2" height="0.2"/>
		<rect x="188.5" y="96.7" class="st19" width="0.2" height="0.2"/>
		<rect x="188.3" y="96.9" class="st19" width="0.2" height="0.2"/>
		<rect x="188.5" y="97" class="st19" width="0.2" height="0.2"/>
		<rect x="188.3" y="97.2" class="st19" width="0.2" height="0.2"/>
		<rect x="188.6" y="94.8" class="st19" width="0.2" height="0.2"/>
		<rect x="188.8" y="95" class="st19" width="0.2" height="0.2"/>
		<rect x="188.6" y="95.2" class="st19" width="0.2" height="0.2"/>
		<rect x="188.8" y="95.3" class="st19" width="0.2" height="0.2"/>
		<rect x="188.6" y="95.5" class="st19" width="0.2" height="0.2"/>
		<rect x="188.8" y="95.7" class="st19" width="0.2" height="0.2"/>
		<rect x="188.6" y="95.8" class="st19" width="0.2" height="0.2"/>
		
			<rect x="188.8" y="96" transform="matrix(0.9997 -2.510202e-02 2.510202e-02 0.9997 -2.3528 4.7721)" class="st19" width="0.2" height="0.2"/>
		
			<rect x="188.7" y="96.2" transform="matrix(1.619958e-02 -0.9999 0.9999 1.619958e-02 89.4199 283.4671)" class="st19" width="0.2" height="0.2"/>
		<rect x="188.8" y="96.4" class="st19" width="0.2" height="0.2"/>
		<rect x="188.6" y="96.5" class="st19" width="0.2" height="0.2"/>
		
			<rect x="188.8" y="96.7" transform="matrix(0.9999 -1.223262e-02 1.223262e-02 0.9999 -1.17 2.3179)" class="st19" width="0.2" height="0.2"/>
		<rect x="188.6" y="96.9" class="st19" width="0.2" height="0.2"/>
		<rect x="188.8" y="97" class="st19" width="0.2" height="0.2"/>
		<rect x="188.6" y="97.2" class="st19" width="0.2" height="0.2"/>
		<rect x="189" y="95.2" class="st19" width="0.2" height="0.2"/>
		<rect x="189.2" y="95.3" class="st19" width="0.2" height="0.2"/>
		<rect x="189" y="95.5" class="st19" width="0.2" height="0.2"/>
		<rect x="189.2" y="95.7" class="st19" width="0.2" height="0.2"/>
		<rect x="189" y="95.8" class="st19" width="0.2" height="0.2"/>
		<rect x="189.2" y="96" class="st19" width="0.2" height="0.2"/>
		
			<rect x="189" y="96.1" transform="matrix(1.571253e-02 -0.9999 0.9999 1.571253e-02 89.9085 283.8144)" class="st19" width="0.2" height="0.2"/>
		<rect x="189.2" y="96.4" class="st19" width="0.2" height="0.2"/>
		<rect x="189" y="96.5" class="st19" width="0.2" height="0.2"/>
		<polygon class="st19" points="189.2,96.9 189.3,96.9 189.4,96.7 189.2,96.7 		"/>
		<rect x="189" y="96.9" class="st19" width="0.2" height="0.2"/>
		
			<rect x="189.3" y="95.5" transform="matrix(0.9997 -2.585253e-02 2.585253e-02 0.9997 -2.4083 4.9286)" class="st19" width="0.2" height="0.2"/>
		<rect x="189.3" y="95.8" class="st19" width="0.2" height="0.2"/>
		<rect x="189.4" y="96.2" class="st19" width="0.2" height="0.2"/>
		<rect x="189.3" y="96.5" class="st19" width="0.2" height="0.2"/>
	</g>
	<path class="st20" d="M188.3,95h-22.9c-0.8,0-1.5,0.6-1.5,1.3c0,0.7,0.7,1.3,1.5,1.3h22.9c0.8,0,1.5-0.6,1.5-1.3
		C189.8,95.5,189.1,95,188.3,95z M188.3,97.2h-22.9c-0.6,0-1.1-0.4-1.1-1c0-0.5,0.5-1,1.1-1h22.9c0.6,0,1.1,0.4,1.1,1
		C189.4,96.8,188.9,97.2,188.3,97.2z"/>
	
		<linearGradient id="SVGID_4_" gradientUnits="userSpaceOnUse" x1="165.8232" y1="606.852" x2="165.8232" y2="604.2108" gradientTransform="matrix(1 -1.000000e-04 -1.000000e-04 -1 11.0874 701.8209)">
		<stop  offset="5.376340e-03" style="stop-color:#1D2021"/>
		<stop  offset="1" style="stop-color:#6E6F6F"/>
	</linearGradient>
	<path class="st21" d="M188.3,94.6h-22.9c-0.8,0-1.5,0.6-1.5,1.4s0.7,1.5,1.5,1.5h22.9c0.8,0,1.5-0.6,1.5-1.4
		C189.8,95.3,189.1,94.6,188.3,94.6z M188.3,97.1h-22.9c-0.6,0-1.1-0.5-1.1-1.1s0.5-1.1,1.1-1.1h22.9c0.6,0,1.1,0.5,1.1,1.1
		C189.4,96.7,188.9,97.1,188.3,97.1z"/>
</g>
<g>
	
		<linearGradient id="SVGID_5_" gradientUnits="userSpaceOnUse" x1="163.2986" y1="335.8" x2="187.4" y2="335.8" gradientTransform="matrix(1 0 0 -1 0 706)">
		<stop  offset="0" style="stop-color:#C4BFB7"/>
		<stop  offset="0.2025" style="stop-color:#FAF1DE"/>
		<stop  offset="0.4294" style="stop-color:#D1CBC0"/>
		<stop  offset="0.6503" style="stop-color:#FAF5EE"/>
		<stop  offset="0.8098" style="stop-color:#F1E8D8"/>
		<stop  offset="1" style="stop-color:#FAF5EE"/>
	</linearGradient>
	<path class="st22" d="M187.4,370.2c0,6.5-5.4,11.8-12.1,11.8c-6.7,0-12.1-5.3-12-11.8c0-6.5,5.4-11.8,12-11.8
		C182,358.4,187.4,363.7,187.4,370.2z"/>
	<path class="st23" d="M186.5,370.2c0,6-5,10.9-11.2,10.9s-11.2-4.9-11.2-10.9s5-10.9,11.2-10.9
		C181.5,359.3,186.5,364.2,186.5,370.2z"/>
	
		<linearGradient id="SVGID_6_" gradientUnits="userSpaceOnUse" x1="175.3" y1="339.5465" x2="175.3" y2="314.9839" gradientTransform="matrix(1 0 0 -1 0 706)">
		<stop  offset="0" style="stop-color:#FFFFFF;stop-opacity:0"/>
		<stop  offset="0.5" style="stop-color:#FFFFFF"/>
	</linearGradient>
	<path class="st24" d="M175.3,371.5c-4.2,0-8.1-0.5-11.2-1.4c0,0.1,0,0.1,0,0.1c0,6,5,10.9,11.2,10.9s11.2-4.9,11.2-10.9v-0.1
		C183.4,371,179.5,371.5,175.3,371.5z"/>
	<path class="st25" d="M177.6,374.4h-5.1c-0.9,0-1.7-0.7-1.7-1.6v-4.9c0-0.9,0.8-1.6,1.7-1.6h5.1c0.9,0,1.7,0.7,1.7,1.6v4.9
		C179.3,373.7,178.6,374.4,177.6,374.4z M172.6,366.6c-0.7,0-1.3,0.6-1.3,1.2v4.9c0,0.7,0.6,1.2,1.3,1.2h5.1c0.7,0,1.3-0.6,1.3-1.2
		v-4.9c0-0.7-0.6-1.2-1.3-1.2H172.6z"/>
</g>
<rect x="328.3" y="97.3" class="st11" width="114.7" height="16.1"/>
<rect x="547.8" y="97.3" class="st11" width="224.3" height="16.1"/>
<g>
	<path class="st1" d="M540,108.6c-0.1,0-0.3-0.1-0.4-0.2l-5.4-5.4c-0.2-0.2-0.2-0.6,0-0.8c0.2-0.2,0.6-0.2,0.8,0l5.4,5.4
		c0.2,0.2,0.2,0.6,0,0.8C540.3,108.5,540.2,108.6,540,108.6z"/>
	<path class="st1" d="M534.6,108.6c-0.1,0-0.3-0.1-0.4-0.2c-0.2-0.2-0.2-0.6,0-0.8l5.4-5.4c0.2-0.2,0.6-0.2,0.8,0s0.2,0.6,0,0.8
		l-5.4,5.4C534.9,108.5,534.7,108.6,534.6,108.6z"/>
</g>
<path class="st11" d="M752,136.4H384.5c-1.1,0-2-0.9-2-2l0,0c0-1.1,0.9-2,2-2H752c1.1,0,2,0.9,2,2l0,0
	C754,135.5,753.1,136.4,752,136.4z"/>
<path class="st11" d="M752,248.3H384.5c-1.1,0-2-0.9-2-2l0,0c0-1.1,0.9-2,2-2H752c1.1,0,2,0.9,2,2l0,0
	C754,247.4,753.1,248.3,752,248.3z"/>
<path class="st11" d="M752,155.1H566.9c-1.1,0-2-0.9-2-2l0,0c0-1.1,0.9-2,2-2H752c1.1,0,2,0.9,2,2l0,0
	C754,154.2,753.1,155.1,752,155.1z"/>
<path class="st10" d="M547.4,155.1H441c-1.1,0-2-0.9-2-2l0,0c0-1.1,0.9-2,2-2h106.4c1.1,0,2,0.9,2,2l0,0
	C549.4,154.2,548.5,155.1,547.4,155.1z"/>
<path class="st11" d="M752,229.6H566.9c-1.1,0-2-0.9-2-2l0,0c0-1.1,0.9-2,2-2H752c1.1,0,2,0.9,2,2l0,0
	C754,228.8,753.1,229.6,752,229.6z"/>
<path class="st10" d="M547.4,229.6H441c-1.1,0-2-0.9-2-2l0,0c0-1.1,0.9-2,2-2h106.4c1.1,0,2,0.9,2,2l0,0
	C549.4,228.8,548.5,229.6,547.4,229.6z"/>
<path class="st10" d="M752,173.7H645.6c-1.1,0-2-0.9-2-2l0,0c0-1.1,0.9-2,2-2H752c1.1,0,2,0.9,2,2l0,0
	C754,172.8,753.1,173.7,752,173.7z"/>
<path class="st10" d="M752,211H645.6c-1.1,0-2-0.9-2-2l0,0c0-1.1,0.9-2,2-2H752c1.1,0,2,0.9,2,2l0,0C754,210.1,753.1,211,752,211z"
	/>
<path class="st11" d="M630.6,173.7H524.2c-1.1,0-2-0.9-2-2l0,0c0-1.1,0.9-2,2-2h106.4c1.1,0,2,0.9,2,2l0,0
	C632.6,172.8,631.7,173.7,630.6,173.7z"/>
<path class="st11" d="M566.9,192.4H460.5c-1.1,0-2-0.9-2-2l0,0c0-1.1,0.9-2,2-2h106.4c1.1,0,2,0.9,2,2l0,0
	C568.9,191.5,568,192.4,566.9,192.4z"/>
<path class="st11" d="M631.4,211H525c-1.1,0-2-0.9-2-2l0,0c0-1.1,0.9-2,2-2h106.4c1.1,0,2,0.9,2,2l0,0
	C633.4,210.1,632.5,211,631.4,211z"/>
<path class="st10" d="M512.6,173.7H406.2c-1.1,0-2-0.9-2-2l0,0c0-1.1,0.9-2,2-2h106.4c1.1,0,2,0.9,2,2l0,0
	C514.6,172.8,513.7,173.7,512.6,173.7z"/>
<path class="st11" d="M752,192.4h-81.2c-1.1,0-2-0.9-2-2l0,0c0-1.1,0.9-2,2-2H752c1.1,0,2,0.9,2,2l0,0
	C754,191.5,753.1,192.4,752,192.4z"/>
<path class="st10" d="M659.2,192.4H578c-1.1,0-2-0.9-2-2l0,0c0-1.1,0.9-2,2-2h81.2c1.1,0,2,0.9,2,2l0,0
	C661.2,191.5,660.3,192.4,659.2,192.4z"/>
<path class="st11" d="M567.9,267H461.5c-1.1,0-2-0.9-2-2l0,0c0-1.1,0.9-2,2-2h106.4c1.1,0,2,0.9,2,2l0,0
	C569.9,266.1,569,267,567.9,267z"/>
<path class="st11" d="M753,267h-81.2c-1.1,0-2-0.9-2-2l0,0c0-1.1,0.9-2,2-2H753c1.1,0,2,0.9,2,2l0,0C755,266.1,754.1,267,753,267z"
	/>
<path class="st10" d="M660.2,267H579c-1.1,0-2-0.9-2-2l0,0c0-1.1,0.9-2,2-2h81.2c1.1,0,2,0.9,2,2l0,0
	C662.2,266.1,661.3,267,660.2,267z"/>
<g>
	<g>
		<path d="M594.8,309l-9.7-9.7c-0.1-0.1-0.2-0.1-0.4-0.1c-0.1,0-0.2,0.2-0.2,0.3v14.3c0,0.1,0.1,0.3,0.2,0.3c0.1,0,0.3,0,0.4-0.1
			l2.6-3.2l1.7,3.7c0.1,0.1,0.2,0.2,0.3,0.2c0,0,0.1,0,0.1,0l2.3-1c0.1,0,0.1-0.1,0.2-0.2c0-0.1,0-0.2,0-0.3l-1.7-3.8h4
			c0.1,0,0.2-0.1,0.3-0.2C594.9,309.2,594.9,309.1,594.8,309z"/>
	</g>
</g>
</svg>
