<?xml version="1.0" encoding="utf-8"?>
<!-- Generator: Adobe Illustrator 21.0.0, SVG Export Plug-In . SVG Version: 6.00 Build 0)  -->
<svg version="1.1" id="Capa_1" xmlns="http://www.w3.org/2000/svg" xmlns:xlink="http://www.w3.org/1999/xlink" x="0px" y="0px"
	 viewBox="0 0 886.1 703.3" style="enable-background:new 0 0 886.1 703.3;" xml:space="preserve">
<style type="text/css">
	.st0{fill:#AFBBD0;}
	.st1{fill:#424242;}
	.st2{fill:#005076;}
	.st3{fill:#FAFAFA;}
	.st4{fill:#F5F5F5;}
	.st5{fill:#E0E0E0;}
	.st6{fill:#BEC8DC;}
	.st7{fill:#96A5B9;}
	.st8{fill:#00273A;}
	.st9{fill:#EEEEEE;}
	.st10{fill:#D32F2F;}
	.st11{fill:#BDBDBD;}
	.st12{fill:#757575;}
	.st13{fill:#616161;}
	.st14{fill:#FFFFFF;}
	.st15{fill:#EF5350;}
	.st16{fill:#F48FB1;}
</style>
<title>imgSeccionAspectos</title>
<polygon class="st0" points="358,567.7 342.2,643.5 543.9,643.5 528.2,567.7 "/>
<path class="st1" d="M886.1,474.3v-450c0-13.4-10.9-24.3-24.3-24.3H24.3C10.9,0,0,10.9,0,24.3l0,0v450H886.1z"/>
<rect x="25.3" y="25.3" class="st2" width="835.5" height="423.6"/>
<rect x="25.3" y="25.3" class="st3" width="835.5" height="15"/>
<path class="st4" d="M581.4,636.8H304.7c-7.5,0-13.5,6.1-13.5,13.5l0,0h303.7C594.9,642.8,588.9,636.8,581.4,636.8z"/>
<rect x="25.3" y="25.3" class="st5" width="46.2" height="15"/>
<path class="st6" d="M0,474.3v69.2c0,13.4,10.9,24.3,24.3,24.3l0,0h837.6c13.4,0,24.3-10.9,24.3-24.3l0,0v-69.2H0z"/>
<circle class="st7" cx="443" cy="521" r="15.8"/>
<polygon class="st7" points="358,567.7 355.5,579.6 536,605.6 528.2,567.7 "/>
<rect x="830.5" y="57.9" class="st8" width="20.8" height="20.8"/>
<rect x="830.5" y="90.9" class="st8" width="20.8" height="20.8"/>
<rect x="830.5" y="124" class="st8" width="20.8" height="20.8"/>
<rect x="830.5" y="157.1" class="st8" width="20.8" height="20.8"/>
<rect x="314.1" y="423.7" class="st8" width="257.9" height="25.3"/>
<path class="st9" d="M38.5,167.4v219.8c0,4.8,3.9,8.7,8.7,8.7H385c4.8,0,8.7-3.9,8.7-8.7V167.4H38.5z"/>
<path class="st5" d="M385,148.9H47.2c-4.8,0-8.7,3.9-8.7,8.7l0,0v9.8h355.2v-9.8C393.7,152.8,389.8,148.9,385,148.9z"/>
<circle class="st10" cx="51.3" cy="158.1" r="3"/>
<circle class="st11" cx="61.3" cy="158.1" r="3"/>
<circle class="st11" cx="71.2" cy="158.1" r="3"/>
<path class="st12" d="M203.4,76v326.9c0,4.8,3.9,8.7,8.7,8.7h587.2c4.8,0,8.7-3.9,8.7-8.7V76H203.4z"/>
<path class="st13" d="M799.4,57.5H212.2c-4.8,0-8.7,3.9-8.7,8.7l0,0V76h604.7v-9.8C808.1,61.4,804.2,57.5,799.4,57.5L799.4,57.5z"/>
<rect x="203.4" y="76" class="st1" width="604.7" height="31.3"/>
<rect x="693.4" y="84.2" class="st13" width="93.9" height="14.9"/>
<path class="st13" d="M772.1,107.3v304.3h27.3c4.8,0,8.8-3.9,8.8-8.8l0,0V107.3H772.1z"/>
<rect x="783.6" y="118.8" class="st11" width="13" height="13.1"/>
<rect x="783.6" y="148.7" class="st11" width="13" height="13.1"/>
<rect x="783.6" y="178.5" class="st11" width="13" height="13.1"/>
<rect x="783.6" y="208.4" class="st11" width="13" height="13.1"/>
<rect x="783.6" y="238.3" class="st11" width="13" height="13.1"/>
<rect x="783.6" y="268.1" class="st11" width="13" height="13"/>
<rect x="783.6" y="298" class="st11" width="13" height="13"/>
<rect x="382.9" y="134.4" class="st14" width="245.8" height="245.8"/>
<rect x="597.4" y="178.5" class="st13" width="109.5" height="93.1"/>
<rect x="608.5" y="189.6" class="st11" width="16.8" height="16.8"/>
<rect x="643.8" y="189.6" class="st11" width="16.8" height="16.8"/>
<rect x="679.1" y="189.5" class="st11" width="16.8" height="16.8"/>
<rect x="608.5" y="223.7" class="st11" width="16.8" height="16.8"/>
<rect x="643.8" y="223.7" class="st11" width="16.8" height="16.8"/>
<rect x="679.1" y="223.7" class="st11" width="16.8" height="16.8"/>
<rect x="597.4" y="161.7" class="st1" width="109.5" height="16.8"/>
<circle class="st15" cx="219.1" cy="66.7" r="3"/>
<circle class="st1" cx="229.1" cy="66.7" r="3"/>
<circle class="st1" cx="239" cy="66.7" r="3"/>
<path class="st14" d="M91.7,109.2v152.9c0,4.8,3.9,8.7,8.7,8.7H314c4.8,0,8.7-3.9,8.7-8.7V109.2H91.7z"/>
<path class="st4" d="M314.1,90.7H100.5c-4.8,0-8.7,3.9-8.7,8.7v9.8h231.1v-9.7C322.8,94.6,318.9,90.7,314.1,90.7z"/>
<circle class="st15" cx="104.5" cy="99.9" r="3"/>
<circle class="st5" cx="114.5" cy="99.9" r="3"/>
<circle class="st5" cx="124.5" cy="99.9" r="3"/>
<rect x="114.5" y="131.9" class="st16" width="185.6" height="116.2"/>
<rect x="148.2" y="646.2" class="st6" width="593.9" height="27.9"/>
<polygon class="st6" points="201.1,674.1 207.1,703.3 253.3,703.3 259.3,674.1 "/>
<polygon class="st7" points="201.1,674.1 203.2,684.6 255.4,693 259.3,674.1 "/>
<polygon class="st6" points="689.2,674.1 683.2,703.3 637,703.3 631,674.1 "/>
<polygon class="st7" points="631,674.1 633.1,684.6 685.3,693 689.2,674.1 "/>
</svg>
