<?xml version="1.0" encoding="utf-8"?>
<!-- Generator: Adobe Illustrator 21.0.0, SVG Export Plug-In . SVG Version: 6.00 Build 0)  -->
<svg version="1.1" id="Capa_1" xmlns="http://www.w3.org/2000/svg" xmlns:xlink="http://www.w3.org/1999/xlink" x="0px" y="0px"
	 viewBox="0 0 765.1 167.6" style="enable-background:new 0 0 765.1 167.6;" xml:space="preserve">
<style type="text/css">
	.st0{fill:#0088CC;}
	.st1{fill:#262424;}
</style>
<title>logoGbMediaGroup</title>
<g id="GB">
	<path id="G" class="st0" d="M43.6,48.4h72.7c4.2,0,4.1,1.2,4.1,7.4v46.4c0,0,0.2,18.5-19.2,18.5H19.5C7.4,120.8,0,117.6,0,97V16.4
		C0,16.4,1,0,19.9,0H102c0,0,18.6-0.2,18.6,21.5c0,2.5,0.1,3-3.4,3H29c-3.9,0-5.1-0.7-5.1,6.2v60.6c0,4.8-0.2,5.3,7.4,5.3h60.6
		c3.5,0,4.6,0.4,4.6-5.2V75.5c0-1.6,0.8-2.8-5.1-5.3L43.6,48.4z"/>
	<path id="B" class="st0" d="M229,49.1V17.5c0,0,0.4-17.4-20.3-17.4h-72.6c0,0-3.7-0.4-3.7,3.7v114.1c0,0-0.3,2.9,2.3,2.9h19.9
		c1,0,1.8-0.8,1.8-1.8c0,0,0,0,0,0V74.7c0,0-0.2-2.5,1.8-2.5h45.3c0,0,1.6,0.1,1.6,2.6v19.5c0.1,1-0.6,2-1.7,2.1c-0.1,0-0.3,0-0.4,0
		h-46.3l16.8,22.5c0,0,0.7,1.9,5.4,1.9h31.3c0,0,18.7,1,18.7-21.4V70.3c-0.3-2.8-1.3-5.5-2.9-7.8c-0.7-0.6-1.1-1.4-1.1-2.3
		c0-1.5,1-1.8,1.7-2.9C228.3,54.8,229.1,52,229,49.1z M202.5,48.5h-42.8c0,0-3.3,0.5-3.3-3.3V26.8c0,0-0.9-2.5,3.7-2.5h42.3
		c0,0,2.4-0.4,2.4,2.8v19.1C204.8,46.2,205.1,48.5,202.5,48.5L202.5,48.5z"/>
</g>
<g id="MEDIA">
	<polygon id="M" class="st1" points="240.7,0.1 240.7,120.8 264.6,120.8 264.6,51.3 289.5,114.7 313,114.7 337.3,49.2 337.3,120.8 
		361.5,120.8 361.5,0.1 331.2,0.1 301.1,82 271.5,0.1 	"/>
	<g id="E">
		<polygon class="st1" points="373.2,0.1 373.2,120.8 470.4,120.8 470.4,96.3 397.8,96.3 397.8,24.5 470.4,24.5 470.4,0.1 		"/>
		<rect x="403.5" y="48.3" class="st1" width="60.5" height="24.2"/>
	</g>
	<path id="D" class="st1" d="M584.2,0.1H481.5v120.7h105.9c0,0,15.2-0.8,15.2-20.8V18C602.6,18,602.4,0.1,584.2,0.1z M579,96.1h-73
		V24.3h73V96.1z"/>
	<rect id="I" x="614.4" y="0.1" class="st1" width="24.6" height="120.7"/>
	<polygon id="A" class="st1" points="692.5,0.1 644.9,120.8 674.8,120.8 705,35.6 718.4,72.7 697.4,72.7 689,96.8 727,96.8 
		735.3,120.8 765.1,120.8 717.4,0.1 	"/>
</g>
<polygon id="LineaSup" class="st1" points="4.2,133.4 514.3,133.4 526.6,145.6 16.5,145.6 "/>
<polygon id="LineInf" class="st0" points="4.2,152.7 514.3,152.7 526.6,165 16.5,165 "/>
<g id="GROUP">
	<path id="G2" class="st0" d="M579.5,134l-3,2.9c-2.1-2.1-4.5-3.7-7.2-4.9c-2.4-1.1-5-1.6-7.6-1.7c-3.1,0-6.1,0.8-8.8,2.3
		c-2.7,1.4-4.9,3.5-6.5,6.1c-1.5,2.5-2.3,5.3-2.3,8.2c0,3,0.8,5.9,2.4,8.4c1.6,2.7,3.8,4.8,6.6,6.3c2.8,1.5,6,2.3,9.2,2.3
		c3.7,0.1,7.3-1.1,10.2-3.4c2.8-2.2,4.6-5.4,5-8.9H565v-3.8h16.9c0,6.1-1.8,10.9-5.4,14.4s-8.3,5.4-14.3,5.3c-7.2,0-13-2.5-17.2-7.4
		c-3.2-3.6-4.9-8.3-4.9-13.2c0-3.6,0.9-7.2,2.8-10.4c1.8-3.2,4.5-5.7,7.7-7.5c3.4-1.8,7.2-2.8,11-2.7c3.2,0,6.4,0.6,9.4,1.8
		C574.2,129.6,577.1,131.6,579.5,134z"/>
	<path id="R" class="st0" d="M596.5,127.4h7.8c3-0.1,5.9,0.1,8.8,0.5c2.2,0.5,4.2,1.7,5.7,3.4c1.5,1.8,2.3,4.1,2.2,6.5
		c0,2-0.5,3.9-1.5,5.6c-1,1.6-2.5,2.9-4.3,3.7c-2.5,0.9-5.1,1.4-7.7,1.3l14.1,18.2h-4.8l-14.1-18.2h-2.2v18.2h-3.9V127.4z
		 M600.4,131.3v13.3l6.8,0.1c2,0.1,3.9-0.2,5.8-0.7c1.2-0.5,2.2-1.3,2.9-2.4c0.7-1.1,1.1-2.4,1-3.7c0-1.3-0.4-2.5-1.1-3.6
		c-0.7-1-1.7-1.8-2.8-2.3c-1.9-0.6-3.8-0.8-5.8-0.7H600.4z"/>
	<path id="O" class="st0" d="M655,126.5c5.6-0.1,11,2,14.9,5.9c8.1,8,8.1,21.1,0.1,29.1c-3.9,3.9-9.2,6.1-14.7,6.1
		c-5.5,0.1-10.9-2-14.7-6c-3.9-3.8-6.1-9-6-14.4c0-3.7,0.9-7.3,2.7-10.5C640.9,130.4,647.7,126.4,655,126.5z M655.2,130.3
		c-2.9,0-5.8,0.8-8.3,2.3c-2.5,1.5-4.6,3.6-6.1,6.1c-1.5,2.6-2.2,5.6-2.2,8.6c-0.1,9.1,7.3,16.5,16.4,16.6c0.1,0,0.1,0,0.2,0
		c3,0,5.9-0.7,8.4-2.2c2.5-1.4,4.6-3.5,6.1-6.1c1.5-2.6,2.2-5.6,2.2-8.5c0-3-0.7-5.9-2.2-8.4c-1.5-2.5-3.6-4.6-6.1-6
		C661,131.1,658.1,130.3,655.2,130.3L655.2,130.3z"/>
	<path id="U" class="st0" d="M690.8,127.4h3.9v23.7c0,1.8,0,3.5,0.2,5.3c0.1,1.4,0.6,2.7,1.4,3.9c0.8,1.2,2,2.1,3.3,2.6
		c1.4,0.7,2.9,1,4.5,1c1.3,0,2.6-0.3,3.7-0.8c1.2-0.5,2.2-1.3,3-2.3c0.8-1,1.4-2.3,1.8-3.6c0.3-2,0.5-4.1,0.4-6.1v-23.6h3.9v23.7
		c0.1,2.9-0.3,5.7-1,8.5c-0.8,2.3-2.2,4.2-4.1,5.6c-2.1,1.6-4.8,2.5-7.4,2.4c-2.9,0.1-5.7-0.7-8.1-2.3c-2.2-1.4-3.8-3.5-4.5-6
		c-0.6-2.7-0.8-5.5-0.7-8.3L690.8,127.4z"/>
	<path id="P" class="st0" d="M733.4,127.4h7.8c3-0.1,6.1,0.1,9.1,0.6c2.2,0.5,4.1,1.7,5.5,3.4c1.5,1.8,2.2,4.1,2.1,6.5
		c0.1,2.3-0.6,4.6-2.1,6.5c-1.5,1.7-3.5,3-5.7,3.4c-3.3,0.5-6.7,0.7-10,0.6h-2.8v18.2h-3.9L733.4,127.4z M737.3,131.3v13.3l6.6,0.1
		c2,0.1,4-0.2,5.9-0.7c1.2-0.5,2.2-1.3,2.9-2.4c0.7-1.1,1.1-2.4,1.1-3.7c0-1.3-0.4-2.5-1.1-3.6c-0.7-1.1-1.7-1.9-2.8-2.3
		c-1.8-0.6-3.8-0.8-5.7-0.7L737.3,131.3z"/>
</g>
</svg>
